<?xml version="1.0" standalone="no"?>
<!DOCTYPE svg PUBLIC "-//W3C//DTD SVG 1.1//EN" "http://www.w3.org/Graphics/SVG/1.1/DTD/svg11.dtd" >
<!--
2013-9-30: Created.
-->
<svg>
<metadata>
Created by iconfont
</metadata>
<defs>

<font id="iconfont" horiz-adv-x="1024" >
  <font-face
    font-family="iconfont"
    font-weight="500"
    font-stretch="normal"
    units-per-em="1024"
    ascent="896"
    descent="-128"
  />
    <missing-glyph />
    
    <glyph glyph-name="reduce" unicode="&#59057;" d="M512.17476267 892.37879467c-280.08049778 0-507.95121778-227.87072-507.95121778-507.95121778 0-280.08163555 227.87072-507.95121778 507.95121778-507.95121778 280.08163555 0 507.95235555 227.86958222 507.95235555 507.95121778C1020.12598045 664.50807467 792.25526045 892.37879467 512.17476267 892.37879467zM512.17476267-60.03120354999999c-245.07778845 0-444.45752889 199.38087822-444.45752889 444.45991822 0 245.07778845 199.37974045 444.45752889 444.45752889 444.45752888 245.07904 0 444.45752889-199.37974045 444.45752888-444.45752888C956.63229155 139.34853689 757.25255111-60.03120354999999 512.17476267-60.03120354999999zM702.65673955 416.17385245H321.69394176c-17.54851555 0-31.74741333-14.19889778-31.74741333-31.74627556 0-17.51699911 14.19889778-31.74741333 31.74741333-31.74741334h380.9628069c17.54851555 0 31.74741333 14.23030045 31.74741333 31.74741334C734.40415289 401.97495467 720.20525511 416.17385245 702.65673955 416.17385245z"  horiz-adv-x="1024" />

    
    <glyph glyph-name="weather-wind" unicode="&#58896;" d="M888.32 283.648c79.36 32.256 135.168 109.056 135.168 198.656 0 118.784-97.28 214.528-217.088 214.528-12.8 0-28.672-0.512-36.864-3.072-8.192-2.56-17.408-15.36-18.944-29.184-3.072-30.208 25.088-37.888 31.232-38.4 1.024 0 11.776-1.024 25.088-1.024 79.872 0 144.896-64 144.896-143.36 0-78.848-65.024-143.36-144.896-143.36H190.464c-3.072 0-6.144-0.512-9.216-1.024H128c-19.968 0-36.352-15.872-36.352-35.84s16.384-35.84 36.352-35.84h615.936c79.872 0 144.896-64 144.896-143.36 0-78.848-65.024-143.36-144.896-143.36s-134.656 64-134.656 143.36v2.56c0 19.968-16.384 35.84-36.352 35.328-19.968 0-35.84-16.384-35.84-36.352v-2.048c0-118.784 87.04-214.528 206.848-214.528s217.088 96.256 217.088 214.528c0 65.536-28.16 122.368-72.704 161.792zM620.544 590.336c0 105.984-86.528 164.352-193.536 164.352-11.264 0-25.6-0.512-33.28-3.072-7.168-2.56-15.872-13.824-16.896-26.112-2.56-27.136 22.016-33.792 27.648-34.304 0.512 0 10.752-0.512 22.016-0.512 71.168 0 129.024-29.696 129.024-100.352S497.664 462.848 426.496 462.848h-394.24c-17.92 0-32.256-14.336-32.256-31.744 0-17.408 14.336-31.744 32.256-31.744h394.24c107.52-1.024 194.048 84.992 194.048 190.976zM661.504 486.4c0-1.024 0 0 0 0z"  horiz-adv-x="1024" />

    
    <glyph glyph-name="calendar" unicode="&#58950;" d="M938.666667-48.35555599999998H85.333333c-34.133333 0-56.888889 19.911111-56.888889 56.888889v739.555556c0 25.6 19.911111 56.888889 56.888889 56.888889h142.222223v56.888889h56.888888v-56.888889h455.111112v56.888889h56.888888v-56.888889h142.222223c36.977778 0 56.888889-22.755556 56.888889-56.888889v-739.555556c0-36.977778-17.066667-56.888889-56.888889-56.888889z m0 796.444445h-142.222223v-85.333333h-56.888888v85.333333H284.444444v-85.333333H227.555556v85.333333H85.333333v-142.222222h853.333334v142.222222z m0-199.111111H85.333333v-540.444445h853.333334v540.444445z m-682.666667-199.111111l2.844444 56.888889H369.777778v-56.888889H256z m199.111111 0v56.888889h113.777778v-56.888889h-113.777778z m199.111111 0v56.888889h110.933334l2.844444-56.888889h-113.777778z m-395.377778-170.666667l-2.844444 56.888889h113.777778v-56.888889H258.844444z m196.266667 0v56.888889h113.777778v-56.888889h-113.777778z m310.044445 0H654.222222v56.888889h113.777778l-2.844444-56.888889z"  horiz-adv-x="1024" />

    
    <glyph glyph-name="star" unicode="&#59056;" d="M1034.69724103 506.29765561c-5.75692012 17.71360165-21.10870869 30.70357595-39.56037556 33.36061533l-303.49303505 44.13639036-135.80427567 275.00365961c-8.26634695 16.68030768-25.24188217 27.30846891-43.8411628 27.3084689-18.59928186 0-35.57481586-10.62816123-43.84116282-27.3084689l-135.80427567-275.00365961-303.49303505-44.13639036c-18.45166809-2.65704061-33.80345546-15.49940114-39.56037556-33.36061533-5.75692012-17.71360165-0.8856802-37.1985625 12.39952042-50.1885368l219.64865536-214.03934781L169.68304655-60.24235751000003c-3.09988071-18.3040543 4.42839981-36.90333616 19.48496084-47.82672373 15.05656103-10.92338756 34.98436198-12.39952043 51.51705711-3.69033337l271.46093879 142.74210353 271.46093878-142.74210353c7.08544042-3.69033338 14.90894726-5.60930755 22.73245534-5.60930756 10.18532113 0 20.22302849 3.09988071 28.78460177 9.29964093 15.05656103 10.92338756 22.58484156 29.5226682 19.48496084 47.82672373l-51.81228343 302.31212851 219.64865536 214.03934781C1035.58292124 469.09909311 1040.45416114 488.58405395 1034.69724103 506.29765561L1034.69724103 506.29765561z"  horiz-adv-x="1024" />

    
    <glyph glyph-name="temperature" unicode="&#58977;" d="M557.51146667 240.64V520.53333333c0 25.03146667-20.48 45.51146667-45.51146667 45.51146667s-45.51146667-20.48-45.51146667-45.51146667v-279.89333333C414.15146667 222.4352 375.46666667 172.37333333000004 375.46666667 110.93333332999998c0-75.09333333 61.44-136.53333333 136.53333333-136.53333333s136.53333333 61.44 136.53333333 136.53333333c0 59.1648-38.6848 109.22666667-91.02186666 129.70666667zM648.53333333 292.97813333V748.08853333c0 75.09333333-61.44 136.53333333-136.53333333 136.53333334s-136.53333333-61.44-136.53333333-136.53333334v-455.1104C320.85333333 252.01813332999996 284.4448 186.02666667000005 284.4448 110.93333332999998c0-125.1552 102.4-227.5552 227.5552-227.5552s227.5552 102.4 227.5552 227.5552c0 75.09333333-36.40853333 141.0848-91.02186667 182.0448zM512-71.11146667000003c-100.1248 0-182.0448 81.92-182.0448 182.0448 0 68.26666667 36.4096 125.1552 91.02293333 157.01333334V748.08853333c0 50.06293333 40.96 91.02293333 91.02186667 91.02293334s91.02186667-40.96 91.02186667-91.02293334V267.94666667c54.61333333-31.85813333 91.02293333-91.02186667 91.02293333-157.01333334 0-100.1248-81.92-182.0448-182.0448-182.0448z"  horiz-adv-x="1024" />

    
    <glyph glyph-name="peculiar-smell" unicode="&#58897;" d="M342.16049778 420.14378667c21.79072 27.86645333 50.91555555 47.93799111 84.96128 59.14737778l90.78328889-198.54108445-211.52768 60.19413333c5.81973333 28.93596445 17.58663111 55.92746667 35.78311111 79.19957334zM494.23928889 489.66542222c60.97351111 0 123.34876445-22.78286222 177.51608889-64.39480889l-112.05632-140.97294222-93.12369778 203.65425778c9.00778667 1.09112889 18.22264889 1.71349333 27.66392889 1.71349333z m306.21354666-289.32551111l-209.63555555 59.65596444 110.87075555 139.48814223c59.14396445-56.99584 93.46503111-129.93308445 98.7648-199.14524445zM398.79111111 81.86766222000006c-63.89532445 62.94186667-97.92512 144.63658667-96.65308444 219.23043556l220.93368888-62.8736L398.79111111 81.86766222000006zM589.39164445 219.35217778000003l210.69141333-59.95633778c-3.59765333-37.12568889-16.31232-71.8848-38.98481778-100.88220445-19.21479111-24.56917333-44.15260445-43.04782222-73.12042667-54.7680711L589.39164445 219.35104z m60.22826666-226.66808889a223.82933333 223.82933333 0 0 0-40.59932444-3.69208889c-62.11925333 0-125.71761778 23.60547555-180.58012445 66.72384l122.11427556 153.62730667 99.06517333-216.65905778z m65.77038222 454.44209778c-65.44497778 56.07651555-143.98350222 86.96035555-221.14986666 86.96035555-50.87687111 0-94.6688-20.15118222-133.87320889-43.75438222-112.50460445-67.73532445-181.56657778-182.71232-181.60071111-314.51022222-0.02503111-98.71132445 38.65941333-176.85617778 99.53507555-224.56661333 149.88629333-117.48010667 406.35619555-114.75057778 538.38051556 108.58040888 0 0-1.62360889-2.05255111-4.76728889-5.51253333 68.58296889 115.26030222 28.81877333 285.39221333-96.52451556 392.80298667zM743.24764445 613.7491911100001c0-9.45948445-7.56280889-17.14403555-16.90396445-17.14403556h-11.29813333c-9.34001778 0-16.90282667 7.68341333-16.90282667 17.14403556 0 0 22.55303111 52.15004445 22.55303111 109.99011556 0 30.99648-33.84888889 63.60860445-33.84888889 90.71160888 0 35.90485333 11.29585778 62.12949333 11.29585778 62.12949334 0 9.47996445 7.56280889 17.14403555 16.90396445 17.14403556h11.29813333c9.34001778 0 16.90282667-7.66293333 16.90282667-17.14403556 0 0-11.27537778-25.88558222-11.27537778-61.41155556 0-26.42488889 33.84775111-58.17912889 33.84775111-88.57486222 0-58.95736889-22.57351111-112.8448-22.57351111-112.8448zM528.91420445 613.7491911100001c0-9.45948445-7.56394667-17.14403555-16.90510223-17.14403556h-11.29699555c-9.34001778 0-16.92330667 7.68341333-16.92330667 17.14403556 0 0 22.57351111 52.15004445 22.57351111 109.99011556 0 30.99648-33.85002667 63.60860445-33.85002666 90.71160888 0 35.90485333 11.27537778 62.12949333 11.27537777 62.12949334 0 9.47996445 7.58442667 17.14403555 16.92444445 17.14403556h11.29813333c9.34001778 0 16.90396445-7.66293333 16.90396445-17.14403556 0 0-11.27537778-25.88558222-11.27537778-61.41155556 0-26.42488889 33.84888889-58.17912889 33.84888888-88.57486222 0-58.95736889-22.57351111-112.8448-22.5735111-112.8448zM314.58076445 613.7491911100001c0-9.45948445-7.56167111-17.14403555-16.92330667-17.14403556H286.37866667c-9.34001778 0-16.92330667 7.68341333-16.92330667 17.14403556 0 0 22.57351111 52.15004445 22.57351111 109.99011556 0 30.99648-33.84888889 63.60860445-33.84888889 90.71160888 0 35.90485333 11.27537778 62.12949333 11.27537778 62.12949334 0 9.47996445 7.58442667 17.14403555 16.92444445 17.14403556h11.27765333c9.36163555 0 16.92330667-7.66293333 16.92330667-17.14403556 0 0-11.27537778-25.88558222-11.27537778-61.41155556 0-26.42488889 33.84888889-58.17912889 33.84888888-88.57486222-0.00227555-58.95736889-22.57351111-112.8448-22.5735111-112.8448z"  horiz-adv-x="1024" />

    
    <glyph glyph-name="fumee" unicode="&#58899;" d="M512 893.72444445C230.92337778 893.72444445 2.27555555 665.07662222 2.27555555 384s228.64782222-509.72444445 509.72444445-509.72444445 509.72444445 228.64782222 509.72444445 509.72444445S793.07662222 893.72444445 512 893.72444445z m0-946.63111112c-240.91761778 0-436.90666667 195.98904889-436.90666667 436.90666667s195.98904889 436.90666667 436.90666667 436.90666667 436.90666667-195.98904889 436.90666667-436.90666667-195.98904889-436.90666667-436.90666667-436.90666667zM390.21226667 89.96181333000004a316.53888 316.53888 0 0 0-103.18279112 69.03125334 316.79374222 316.79374222 0 0 0-69.06766222 103.2192 36.40888889 36.40888889 0 0 1-67.28362666-27.88920889 388.66488889 388.66488889 0 0 1 84.86912-126.81216 389.32024889 389.32024889 0 0 1 126.81216-84.83271111 36.33607111 36.33607111 0 0 1 47.55000888 19.69720888 36.37248 36.37248 0 0 1-19.69720888 47.58641778z m-219.83687112 396.12871112a36.26325333 36.26325333 0 0 1 47.58641778 19.6608 316.39324445 316.39324445 0 0 0 69.06766222 103.2192 316.64810667 316.64810667 0 0 0 103.18279112 69.06766222 36.40888889 36.40888889 0 0 1-27.88920889 67.28362666 389.13820445 389.13820445 0 0 1-126.81216-84.83271111 389.28384 389.28384 0 0 1-84.83271111-126.84856889 36.40888889 36.40888889 0 0 1 19.69720888-47.55000888zM633.78773333 678.03818667a317.19424 317.19424 0 0 0 103.2192-69.06766222 316.93937778 316.93937778 0 0 0 69.03125334-103.18279112 36.40888889 36.40888889 0 1 1 67.28362666 27.88920889 389.32024889 389.32024889 0 0 1-84.83271111 126.81216A389.61152 389.61152 0 0 1 661.67694222 745.35822222a36.44529778 36.44529778 0 0 1-27.88920889-67.32003555z m219.83687112-396.12871112a36.51811555 36.51811555 0 0 1-47.58641778-19.69720888 316.68451555 316.68451555 0 0 0-69.03125334-103.2192 316.68451555 316.68451555 0 0 0-103.2192-69.03125334 36.40888889 36.40888889 0 0 1 27.88920889-67.28362666 389.32024889 389.32024889 0 0 1 126.81216 84.83271111 390.08483555 390.08483555 0 0 1 84.83271111 126.81216 36.40888889 36.40888889 0 0 1-19.69720888 47.58641777z m-527.5648 288.03072a261.92554667 261.92554667 0 0 1-57.01632-85.26961777 36.40888889 36.40888889 0 0 1 67.28362666-27.92561778 189.76312889 189.76312889 0 0 0 41.25127111 61.67665778 189.32622222 189.32622222 0 0 0 61.67665778 41.28768 36.44529778 36.44529778 0 0 1-27.88920889 67.28362667 262.36245333 262.36245333 0 0 1-85.30602666-57.0527289z m258.72156444-10.23089777c23.08323555-9.57553778 43.83630222-23.48373333 61.64024889-41.25127111s31.67573333-38.55701333 41.28768-61.67665778a36.40888889 36.40888889 0 1 1 67.28362667 27.92561778 262.61731555 262.61731555 0 0 1-57.0527289 85.26961778 262.144 262.144 0 0 1-85.26961777 57.01632 36.40888889 36.40888889 0 1 1-27.88920889-67.28362667zM439.21863111 208.29070221999996a189.50826667 189.50826667 0 0 0-61.67665778 41.28768 189.90876445 189.90876445 0 0 0-41.28768 61.64024889A36.40888889 36.40888889 0 0 1 268.97066667 283.32942221999997a262.21681778 262.21681778 0 0 1 57.05272888-85.26961777 261.63427555 261.63427555 0 0 1 85.26961778-57.0527289 36.40888889 36.40888889 0 0 1 27.92561778 67.28362667z m258.68515556-10.19448889a261.85272889 261.85272889 0 0 1 57.05272888 85.26961778 36.40888889 36.40888889 0 1 1-67.28362666 27.88920889c-9.57553778-23.08323555-23.48373333-43.83630222-41.28768-61.64024889s-38.59342222-31.71214222-61.64024889-41.28768a36.40888889 36.40888889 0 1 1 27.88920889-67.28362666 260.5056 260.5056 0 0 1 85.26961778 57.05272888zM657.63555555 384c0 80.31800889-65.31754667 145.63555555-145.63555555 145.63555555s-145.63555555-65.31754667-145.63555555-145.63555555 65.31754667-145.63555555 145.63555555-145.63555555 145.63555555 65.31754667 145.63555555 145.63555555z m-145.63555555-72.81777778c-40.15900445 0-72.81777778 32.65877333-72.81777778 72.81777778s32.65877333 72.81777778 72.81777778 72.81777778 72.81777778-32.65877333 72.81777778-72.81777778-32.65877333-72.81777778-72.81777778-72.81777778z"  horiz-adv-x="1024" />

    
    <glyph glyph-name="man" unicode="&#58900;" d="M328.35645557 628.8907391299999l17.05752669-305.65187786a33.17746245 33.17746245 0 0 1 32.59474763-31.16281571h35.59807642v-360.58724915a42.26339508 42.26339508 0 0 1 42.281346-42.28134601h112.01242673a42.26339508 42.26339508 0 0 1 42.27996515 42.28134601V292.07742640000004h35.59807643a32.62926865 32.62926865 0 0 1 32.71902329 31.1628157L695.55517061 628.8921199700001a62.36015241 62.36015241 0 0 1-63.01467096 66.01799975H390.66551689a62.62527385 62.62527385 0 0 1-62.30768046-66.01799975zM428.50745964 795.80401613a83.09485821 83.07690727 90 1 1 166.15381455 0 83.09485821 83.07690727 90 1 1-166.15381455 0z"  horiz-adv-x="1024" />

    
    <glyph glyph-name="ammonia" unicode="&#58901;" d="M266.32080077 303.57983046000004V649.12143803h93.23437237v-504.61447038h-115.7696946l-124.60707587 353.4952507v-353.4952507H25.94403028V649.12143803h116.65343274l123.72333775-345.54160757zM533.65158411 649.12143803v-193.0967807h118.86277804V649.12143803h101.62988458v-504.61447038h-101.62988458V368.53458278000005h-118.86277804v-224.02761513h-101.62988458V649.12143803h101.62988458z m333.16927378-455.12513528a27.39588193 27.39588193 0 0 1 27.837751-14.58167908 36.2332632 36.2332632 0 0 1 18.55850065 3.97682156 27.83775099 27.83775099 0 0 1 10.60485753 10.60485752 44.18690634 44.18690634 0 0 1 4.86055968 16.34915535 165.25902971 165.25902971 0 0 1 0 19.44223879 124.60707587 124.60707587 0 0 1 0 20.3259769 49.04746604 49.04746604 0 0 1-5.74429781 16.79102442 32.25644163 32.25644163 0 0 1-12.37233377 11.93046471 44.18690634 44.18690634 0 0 1-21.20971505 4.41869063h-21.20971503v41.53569195h20.76784596a31.81457257 31.81457257 0 0 1 27.837751 15.46541722 51.25681135 51.25681135 0 0 1 6.18616689 15.46541722 84.83886017 84.83886017 0 0 1 0 18.55850067 51.69868042 51.69868042 0 0 1-7.51177408 31.81457256 27.83775099 27.83775099 0 0 1-22.9771913 9.27925033 32.69831069 32.69831069 0 0 1-16.34915533-3.53495251 25.62840566 25.62840566 0 0 1-10.16298846-10.60485752 47.27998978 47.27998978 0 0 1-4.41869064-15.90728627 173.6545419 173.6545419 0 0 1 0-20.32597692h-58.32671636a92.79250331 92.79250331 0 0 0 23.41906036 69.37344295 94.55997955 94.55997955 0 0 0 68.48970482 22.97719128 102.07175363 102.07175363 0 0 0 66.2803595-19.44223877 74.15667556 74.15667556 0 0 0 23.86092943-60.97793075 78.21082421 78.21082421 0 0 0-12.81420285-44.18690634 55.67550198 55.67550198 0 0 0-34.907656-22.53532224 59.33196848 59.33196848 0 0 0 44.18690634-24.74466754 88.37381268 88.37381268 0 0 0 12.81420284-49.4893351 141.39810029 141.39810029 0 0 0-3.97682157-32.69831068 72.90839547 72.90839547 0 0 0-15.46541723-30.48896539 80.86203859 80.86203859 0 0 0-31.81457256-22.09345316 139.18875497 139.18875497 0 0 0-52.58241853-8.3955122 88.37381268 88.37381268 0 0 0-68.04783577 24.74466754 100.74614645 100.74614645 0 0 0-22.53532224 70.25718109h60.97793075a103.8392299 103.8392299 0 0 1 5.74429783-43.30316822z"  horiz-adv-x="1024" />

    
    <glyph glyph-name="woman" unicode="&#58902;" d="M430.52348723 795.80401613a83.09485821 83.09485821 0 1 1 166.18833559 0 83.09485821 83.09485821 0 1 1-166.18833559 0zM779.21479271 240.10948204L650.87116157 425.58264054l14.84818136 201.80574377a62.59075282 62.59075282 0 0 1-62.32425055 67.52173541H423.84159849a62.59075282 62.59075282 0 0 1-62.32563138-67.52311625l14.83023043-201.80436293-120.92023087-186.21605088a30.82727137 30.82727137 0 0 1 25.96533084-47.47606916h149.13080889v-259.67678267a43.05875939 43.05875939 0 0 1 43.02423837-43.04080844h82.35196583a43.05875939 43.05875939 0 0 1 43.02285752 43.04080844V191.89052049999998h156.60806195a30.63257281 30.63257281 0 0 1 23.68556264 48.21896154z"  horiz-adv-x="1024" />

    
    <glyph glyph-name="primary-air-system" unicode="&#58903;" d="M459.88977778 465.97575111a46.50439111 46.50439111 0 1 1 95.17624889 0 46.50439111 46.50439111 0 1 1-95.17624889 0zM413.94744889 449.13208889c-38.92337778-11.45628445-84.69731555-37.888-122.48974222-96.34702222-83.89973333-129.78517333 65.87505778-192.13653333 118.77034666-172.38471112 100.50218667 37.53073778 45.85244445 131.32458667 70.44892445 194.36202667-34.20728889 10.03747555-60.35228445 38.75157333-66.72952889 74.36970667zM446.80419555 539.2042666699999c16.46705778 13.65902222 37.60810667 21.87832889 60.67313778 21.87832888 13.64536889 0 26.58872889-2.92408889 38.31921778-8.09870222 12.24590222 38.67648 15.89816889 91.39427555-11.44832 155.38517334-60.73002667 142.10844445-196.14378667 52.75875555-209.32608-2.14357334-25.04476445-104.30008889 83.23982222-111.41688889 121.78204444-167.02122666zM807.26243555 499.73248c-76.81365333 74.94087111-138.38222222-14.55900445-205.91729777-19.12376889 0.74069333-4.78208 1.24017778-9.64266667 1.24017777-14.63296 0-31.96586667-15.8208-60.18161778-40.00654222-77.42464 26.95509333-30.32860445 70.37838222-60.46947555 139.37208889-69.73781333 153.16764445-20.57557333 145.72657778 141.48949333 105.31271111 180.91804444zM929.81816889 465.97347555c0 232.88263111-189.45934222 422.34424889-422.34197334 422.3442489s-422.34197333-189.46275555-422.34197333-422.3442489c0-204.95018667 146.76081778-376.20053333 340.69617778-414.34794666-0.03299555-0.04096-0.07736889-0.07736889-0.11036445-0.11832889l-12.7840711-16.28387555-79.13472-100.79118223h-64.91591112c-15.29628445 0-27.81070222-12.51555555-27.81070222-27.81184 0-15.29628445 12.51555555-27.81184 27.81070222-27.81184h477.18741334c15.29628445 0 27.81070222 12.51555555 27.81070222 27.81184 0 15.29514667-12.51555555 27.81184-27.81070222 27.81184H680.72106667l-79.13472 100.79118223-12.78520889 16.28387555c-0.01365333 0.01934222-0.03413333 0.03413333-0.04892445 0.0512 194.11626667 38.00519111 341.06481778 209.33632 341.06481778 414.41507555zM507.47619555 88.76714666999999c-207.99032889 0-377.20519111 169.21486222-377.2051911 377.20632888 0 207.99374222 169.21486222 377.20746667 377.2051911 377.20746667s377.20519111-169.21486222 377.20519112-377.20746667c0-207.99146667-169.21486222-377.20632889-377.20519112-377.20632888z"  horiz-adv-x="1024" />

    
    <glyph glyph-name="handicapees" unicode="&#58904;" d="M419.88410869 670.29939373a97.20567058 97.20567058 0 1 1-101.62574206 92.46938656 97.20567058 97.20567058 0 0 1 101.62574206-92.46938656z m496.63597209-539.90185761L768.55470156 347.78606858a49.48657342 49.48657342 0 0 1-7.98954501 8.94370601 61.38113627 61.38113627 0 0 1-43.45920322 18.22157549H518.83930459l-2.88043394 59.98372537h178.22374419a38.35285387 38.35285387 0 1 1 0 76.70570772h-181.8291196l-2.77549005 57.95388933a86.33707246 86.33707246 0 1 1-172.47806552-8.20219448l10.86859812-226.70230382a86.6021939 86.6021939 0 0 1 90.22413938-82.13103131c0.53162372 0 0.95554185 0.21264949 1.38084082 0.21264949 1.76747625-0.10632475 3.5349525-0.53024288 5.30104793-0.53024288H709.48785452l122.30383336-179.60182332a51.25404966 51.25404966 0 1 1 84.69249105 57.73985901zM700.89902459 196.33820878999995a2.9867587 2.9867587 0 0 1-5.42670443-1.27175441 237.92577802 237.92577802 0 1 0-398.31596299 206.66078011 6.76888172 6.76888172 0 0 1 2.13892245 5.10773019l-4.04724445 85.54170815a4.84260877 4.84260877 0 0 1-7.35297739 3.83459497 318.35975595 318.35975595 0 1 1 467.13845043-387.05796774 9.64931567 9.64931567 0 0 1-0.95416101 8.83738125l-53.16237168 78.29505552z"  horiz-adv-x="1024" />

    
    <glyph glyph-name="hydrothion" unicode="&#58905;" d="M134.59069054 639.45923451V433.48933509h126.78696325V639.45923451h108.40521021V101.20379943h-108.40521021V340.16658891h-126.78696325V101.20379943h-108.40521022V639.45923451h108.40521022zM416.4442371 101.20379943a182.87487637 182.87487637 0 0 0 4.241943 41.47677609 153.18127531 153.18127531 0 0 0 13.66848303 36.76350607 197.01468638 197.01468638 0 0 0 23.09502305 33.93554406 351.60994269 351.60994269 0 0 0 32.52156306 33.93554408l27.33696606 25.45165806c6.59857803 5.60879132 12.77296173 11.78317502 18.38175304 18.38175303 4.33620841 5.18459701 8.01255901 10.84052103 10.84052101 16.96777203a64.10047213 64.10047213 0 0 1 4.71327003 18.38175303 181.16631599 181.16631599 0 0 1 0 22.62369605 33.46421707 33.46421707 0 0 1-32.99289008 41.4767761 30.63625506 30.63625506 0 0 1-31.57890907-19.32440705 66.92843413 66.92843413 0 0 1-5.18459701-20.73838805v-24.98033104h-65.04312612V336.86729990000003a97.09336219 97.09336219 0 0 0 24.98033105 71.64170414 107.46255621 107.46255621 0 0 0 78.71160916 24.98033105 105.57724821 105.57724821 0 0 0 75.41232014-23.56635003c17.25056822-18.05182415 26.15864854-42.51369548 24.50900405-67.39976115a149.88198629 149.88198629 0 0 0-2.827962-29.69360105 113.58980722 113.58980722 0 0 0-8.95521303-26.39431205A124.43032825 124.43032825 0 0 0 592.24920844 261.45497977a235.66350048 235.66350048 0 0 0-24.03767704-24.50900406l-37.70616008-34.87819807a141.39810029 141.39810029 0 0 1-23.56635004-26.39431206 77.29762816 77.29762816 0 0 1-10.84052102-22.62369603h125.84430924V101.20379943H416.4442371z m342.65472967 152.23862132c-0.18853081-11.54751152 0.7541232-23.09502305 2.82796201-34.40687108 1.6496445-9.42654002 5.51452591-18.33462034 11.31184804-25.92298505 5.89158752-7.25843582 13.47995222-12.96149253 22.15236902-16.49644503a88.18380897 88.18380897 0 0 1 34.87819807-6.12725101 69.28506914 69.28506914 0 0 1 47.13270011 16.02511801 60.80118311 60.80118311 0 0 1 19.79573402 49.96066212 90.49478418 90.49478418 0 0 1-4.71327 31.10758206 62.21516412 62.21516412 0 0 1-16.02511804 23.56635005 115.47511523 115.47511523 0 0 1-29.69360105 19.32440703 427.96491684 427.96491684 0 0 1-47.1327001 17.91042604 390.73008378 390.73008378 0 0 0-62.68649111 26.39431205 168.73506633 168.73506633 0 0 0-44.30473808 33.46421707 119.71705824 119.71705824 0 0 0-25.92298507 44.30473809 188.53080036 188.53080036 0 0 0-8.48388602 58.44454812 150.35331329 150.35331329 0 0 0 44.30473809 119.24573123 178.16160635 178.16160635 0 0 0 122.07369324 39.12014109 265.82842851 265.82842851 0 0 0 66.92843413-8.01255902 141.39810029 141.39810029 0 0 0 52.78862411-25.45165806c15.31812754-12.58443092 27.33696604-28.75094705 34.87819807-47.13270009a159.1686011 159.1686011 0 0 0 12.25450203-65.98578014v-15.08246404h-104.16326721a108.40521023 108.40521023 0 0 1-13.66848303 59.38720214 49.96066209 49.96066209 0 0 1-47.13270009 20.73838804 75.41232014 75.41232014 0 0 1-30.16492805-5.18459702 50.90331611 50.90331611 0 0 1-19.32440705-14.13981003 47.1327001 47.1327001 0 0 1-9.89786702-19.79573403 101.8066322 101.8066322 0 0 1-2.82796201-23.56635004 77.88825981 77.88825981 0 0 1 10.36919403-41.94810309 94.26540019 94.26540019 0 0 1 47.13270009-31.10758207L905.68166406 395.78317502c17.81616063-7.54123201 34.73679996-16.96777203 50.43198911-28.27962005a137.36383573 137.36383573 0 0 0 31.10758206-31.57890906c7.68263012-11.26471532 13.15002333-23.89627894 16.02511803-37.23483308a208.32064284 208.32064284 0 0 0 4.71327001-47.1327001c4.71327001-46.42570958-12.72582902-92.38009218-47.13270009-123.95900122a217.75307444 217.75307444 0 0 0-137.62748428-38.64881409 180.51824135 180.51824135 0 0 0-131.50023325 40.06279507 156.00923731 156.00923731 0 0 0-39.59146809 114.53246123v21.68104205h108.40521022v-16.02511803l-1.41398101 4.24194301z"  horiz-adv-x="1024" />

    
    <glyph glyph-name="weather-rain5" unicode="&#58906;" d="M257.13777778 201.95555554999999h509.72444444a182.04444445 182.04444445 0 0 1 0 364.0888889 254.86222222 254.86222222 0 0 1-509.72444444 0 182.04444445 182.04444445 0 0 1 0-364.0888889z m0-72.81777777a254.86222222 254.86222222 0 0 0-66.55544889 500.94990222C220.3648 780.38357333 352.96597333 893.72444445 512 893.72444445c159.07043555 0 291.6352-113.34087111 321.41767111-263.63676445A254.86222222 254.86222222 0 0 0 766.86222222 129.13777777999996H257.13777778z m54.61333333-218.45333333c-30.14656 0-54.61333333 26.06876445-54.61333333 58.25422222 0 21.48124445 18.20444445 50.60835555 54.61333333 87.38133333 36.40888889-36.77297778 54.61333333-65.90008889 54.61333334-87.38133333 0-32.18545778-24.46677333-58.25422222-54.61333334-58.25422222z m200.24888889 0c-30.14656 0-54.61333333 26.06876445-54.61333333 58.25422222 0 21.48124445 18.20444445 50.60835555 54.61333333 87.38133333 36.40888889-36.77297778 54.61333333-65.90008889 54.61333333-87.38133333 0-32.18545778-24.46677333-58.25422222-54.61333333-58.25422222z m200.24888889 0c-30.14656 0-54.61333333 26.06876445-54.61333334 58.25422222 0 21.48124445 18.20444445 50.60835555 54.61333334 87.38133333 36.40888889-36.77297778 54.61333333-65.90008889 54.61333333-87.38133333 0-32.18545778-24.46677333-58.25422222-54.61333333-58.25422222z"  horiz-adv-x="1024" />

    
    <glyph glyph-name="weather-rain16" unicode="&#58907;" d="M146.27271111 92.00071111a254.97144889 254.97144889 0 0 0 44.30961778 475.64572444C220.3648 717.94232889 352.96597333 831.2832 512 831.2832c159.07043555 0 291.6352-113.34087111 321.41767111-263.63676445a254.97144889 254.97144889 0 0 0 44.41884444-475.57290666l-0.07281777-0.03640889a36.40888889 36.40888889 0 0 0-31.23882667 65.79086222A182.04444445 182.04444445 0 0 1 766.86222222 503.6032a254.86222222 254.86222222 0 0 1-509.72444444 0 182.04444445 182.04444445 0 0 1-78.13347556-346.53980445 36.40888889 36.40888889 0 1 0-32.768-65.06268444zM311.75111111-63.283199999999965c-30.14656 0-54.61333333 26.06876445-54.61333333 58.25422222 0 21.48124445 18.20444445 50.60835555 54.61333333 87.38133333 36.40888889-36.77297778 54.61333333-65.90008889 54.61333334-87.38133333 0-32.18545778-24.46677333-58.25422222-54.61333334-58.25422222z m200.24888889 0c-30.14656 0-54.61333333 26.06876445-54.61333333 58.25422222 0 21.48124445 18.20444445 50.60835555 54.61333333 87.38133333 36.40888889-36.77297778 54.61333333-65.90008889 54.61333333-87.38133333 0-32.18545778-24.46677333-58.25422222-54.61333333-58.25422222z m200.24888889 0c-30.14656 0-54.61333333 26.06876445-54.61333334 58.25422222 0 21.48124445 18.20444445 50.60835555 54.61333334 87.38133333 36.40888889-36.77297778 54.61333333-65.90008889 54.61333333-87.38133333 0-32.18545778-24.46677333-58.25422222-54.61333333-58.25422222z"  horiz-adv-x="1024" />

    
    <glyph glyph-name="eclairage" unicode="&#58908;" d="M515.107 692.105c-151.36 0-274.439-123.083-274.439-274.439 0-105.339 59.879-200.703 154.126-246.718v-118.645c0-33.266 19.964-62.1 48.795-74.849v-25.504c0-28.832 23.283-52.117 52.115-52.117h39.92c28.829 0 52.117 23.284 52.117 52.117v25.5c28.828 12.751 48.789 41.584 48.789 74.852V170.947c93.695 46.015 154.127 141.378 154.127 246.718-1.108 151.359-124.19 274.443-275.548 274.443z m19.954-753.466h-39.918c-7.203 0-13.308 6.102-13.308 13.307v18.299h66.538v-18.299c0-7.204-6.102-13.307-13.312-13.307z m18.301 70.416H476.85c-23.836 0-43.247 19.403-43.247 43.247v46.569h163.561v-46.569c-0.557-23.843-19.964-43.247-43.803-43.247zM515.107 291.80999999999995l-41.584 75.954h82.609l-41.026-75.954z m93.143-90.37l-11.641-4.99v-58.772h-62.098V251.889c3.328 2.221 5.548 5.545 7.763 8.869l56.551 104.234c4.989 8.316 4.434 18.849-0.553 27.166-5.542 8.871-15.526 14.419-26.612 14.419H458.003c-11.091 0-21.068-5.541-26.611-14.419-4.991-8.316-5.547-18.294-0.554-27.166l57.108-104.786c2.214-3.322 4.434-6.65 7.759-8.871v-113.657h-62.096V196.45000000000005l-11.643 4.99c-86.487 37.141-141.93 122.527-141.93 216.222 0 129.738 105.894 235.63 235.63 235.63 129.733 0 235.632-105.894 235.632-235.63-0.553-93.695-56.551-178.528-143.042-216.222zM47.12 472.507h102.928v-39.75H47.12v39.75z m206.89 189.475l-72.78 72.78 28.112 28.105 72.78-72.78-28.112-28.105z m488.338 28.104l72.78 72.78 28.106-28.105-72.779-72.78-28.107 28.105z m131.021-217.579h102.927v-39.75H873.369v39.75zM491.831 868.237h39.75V765.31h-39.75V868.237z m0 0z"  horiz-adv-x="1024" />

    
    <glyph glyph-name="weather-rain1" unicode="&#58909;" d="M605.86211555 613.95854222a145.63555555 145.63555555 0 0 0 191.98407112-218.01642667l-0.07281778 0.07281778a36.40888889 36.40888889 0 1 0-50.06222222 52.79288889 72.81777778 72.81777778 0 0 1-97.90350222 107.04213333l-0.07281778 0.07281778a36.40888889 36.40888889 0 0 0-43.87271112 58.03576889z m415.75310223-148.73031111a36.40888889 36.40888889 0 0 0-36.40888889-36.40888889h-36.40888889a36.40888889 36.40888889 0 0 0 0 72.81777778h36.40888889a36.40888889 36.40888889 0 0 0 36.40888889-36.40888889z m-411.60248889 326.69696a36.40888889 36.40888889 0 0 0 43.69066666-27.30666666l8.15559112-35.4258489a36.40888889 36.40888889 0 0 0-70.92451556-16.384l-8.192 35.46225778a36.40888889 36.40888889 0 0 0 27.30666667 43.69066667zM917.95911111 720.96426667a36.40888889 36.40888889 0 0 0 5.38851556-51.19089778l-22.9376-28.28970667a36.40888889 36.40888889 0 1 0-56.57941334 45.80238223l22.9376 28.28970666a36.40888889 36.40888889 0 0 0 51.19089778 5.38851556zM322.81941333 110.56924445000004a36.40888889 36.40888889 0 0 0 17.62190222-48.42382223l-30.7655111-65.93649777a36.40888889 36.40888889 0 0 0-65.97290667 30.7655111l30.72910222 65.97290667a36.40888889 36.40888889 0 0 0 48.42382222 17.62190223z m168.53674667 0a36.40888889 36.40888889 0 0 0 17.58549333-48.42382223l-30.76551111-65.93649777a36.40888889 36.40888889 0 0 0-65.97290667 30.7655111l30.76551112 65.97290667a36.40888889 36.40888889 0 0 0 48.38741333 17.62190223z m91.56835555 23.59296c60.6208 10.63139555 111.04711111 64.98986667 111.04711112 128.30492444a128.70542222 128.70542222 0 0 1-128.96028445 128.48696889c0 99.32344889-80.82773333 179.85991111-180.47886222 179.85991111-99.68753778 0-180.51527111-80.53646222-180.51527111-179.85991111A128.70542222 128.70542222 0 0 1 75.09333333 262.39431111c0-63.42428445 52.10112-117.89198222 112.94037334-128.37774222a36.40888889 36.40888889 0 0 0-6.00746667-72.56291556C81.79256889 67.42471110999998 2.27555555 151.92974221999998 2.27555555 255.29457778000005c0 89.67509333 59.85621333 165.11431111 141.19367112 187.46936889 22.35505778 114.50595555 121.78773333 200.83143111 241.02684444 200.83143111 119.31192889 0 218.74460445-86.32547555 241.06325334-200.83143111 81.33745778-22.31864889 141.19367111-97.79427555 141.1936711-187.50577778 0-102.56384-78.27911111-186.55914667-177.49333333-193.65888a36.40888889 36.40888889 0 0 0-6.33514667 72.49009778z"  horiz-adv-x="1024" />

    
    <glyph glyph-name="humidite" unicode="&#58910;" d="M911.584711 438.859441a33.631967 33.631967 0 0 1-29.090971 17.823982 34.976966 34.976966 0 0 1-29.595971-16.815983l-4.875995-8.575992c-64.236937-111.15189-151.341851-263.33374-151.341851-354.97965a186.318816 186.318816 0 1 1 372.468632 0c0 79.537922-67.262934 201.788801-126.622875 307.895697-11.602989 19.337981-21.859978 37.835963-30.939969 54.651946z m-29.595971-482.949524a119.727882 119.727882 0 0 0-118.886883 120.401881c0 63.058938 65.749935 185.981817 117.709884 278.131726l1.513999-2.857997c50.44695-89.964911 117.709884-213.05579 117.709884-275.273729A119.895882 119.895882 0 0 0 881.98874-44.09008300000005zM411.148204 741.039143c-18.833981 33.630967-36.826964 66.085935-52.632948 95.849905l-9.92199 18.328982a33.631967 33.631967 0 0 1-29.089971 16.815984 33.631967 33.631967 0 0 1-29.596971-16.815984l-20.850979-34.303966C162.27545 634.9292479999999 0.00361 353.771525 0.00361 193.51668299999994A320.508684 320.508684 0 0 1 319.503295-128 321.012683 321.012683 0 0 1 639.00098 193.68568300000004c0 139.569862-124.940877 364.396641-225.162778 545.166462z m-91.645909-801.775209A253.07675 253.07675 0 0 0 67.266544 193.51668299999994c0 137.552864 146.800855 396.347609 250.889752 576.780431 10.762989-19.84198 22.365978-40.52596 33.631967-61.881939l1.176999-2.185998C444.443172 541.43534 569.721048 315.767562 569.721048 193.85368300000005A253.74975 253.74975 0 0 0 319.501295-60.73606600000005z m751.159259 548.866458c-16.814983 15.469985-23.204977 40.69396-30.09997 69.784931-9.92099 42.207958-22.196978 94.672907-76.847925 127.967874-67.262934 40.86196-131.162871 16.815983-187.663814-3.530996-39.179961-14.293986-76.342925-27.913972-110.479891-19.337981C532.391085 696.644187 540.967076 853.031032 541.303076 859.925026A33.631967 33.631967 0 0 1 510.192107 895.91099a33.631967 33.631967 0 0 1-35.984965-31.276969c-5.379995-75.502926 24.214976-228.694774 174.715828-266.697737 54.482946-13.789986 105.434896 4.875995 150.332852 21.355979 55.827945 20.51498 91.981909 31.949968 129.480872 9.079991 29.763971-18.328982 36.489964-44.056957 46.579954-85.591916 8.239992-35.312965 17.656983-75.166926 50.44695-104.761896a33.631967 33.631967 0 0 1 22.364978-8.407992 33.631967 33.631967 0 0 1 25.055975 11.265989 33.631967 33.631967 0 0 1-2.522997 47.252953z"  horiz-adv-x="1081" />

    
    <glyph glyph-name="weather-smog" unicode="&#58911;" d="M512 502.11043555a273.06666667 273.06666667 0 1 0 0-272.62976 273.06666667 273.06666667 0 1 0 0 272.62976zM275.34222222 165.54666667000004a200.24888889 200.24888889 0 1 1 0 400.49777778 200.24888889 200.24888889 0 0 1 0-400.49777778z m475.86417778 0a200.24888889 200.24888889 0 1 1 0 400.49777778 200.24888889 200.24888889 0 0 1 0-400.49777778zM111.50222222 675.27111111a36.40888889 36.40888889 0 1 0 0 72.81777778 36.40888889 36.40888889 0 0 0 0-72.81777778z m400.49777778 0a36.40888889 36.40888889 0 1 0 0 72.81777778 36.40888889 36.40888889 0 0 0 0-72.81777778z m400.49777778 0a36.40888889 36.40888889 0 1 0 0 72.81777778 36.40888889 36.40888889 0 0 0 0-72.81777778zM111.50222222 19.91111110999998a36.40888889 36.40888889 0 1 0 0 72.81777778 36.40888889 36.40888889 0 0 0 0-72.81777778z m400.49777778 0a36.40888889 36.40888889 0 1 0 0 72.81777778 36.40888889 36.40888889 0 0 0 0-72.81777778z m400.49777778 0a36.40888889 36.40888889 0 1 0 0 72.81777778 36.40888889 36.40888889 0 0 0 0-72.81777778z"  horiz-adv-x="1024" />

    
    <glyph glyph-name="weather-sand-storm2" unicode="&#58912;" d="M202.45162667 512.81464889a36.40888889 36.40888889 0 1 0 0 72.81777778 36.40888889 36.40888889 0 0 0 0-72.81777778zM75.09333333 402.20444445a36.40888889 36.40888889 0 1 0 0 72.81777777 36.40888889 36.40888889 0 0 0 0-72.81777777z m254.86222222 0a36.40888889 36.40888889 0 1 0-0.03640888 72.81777777 36.40888889 36.40888889 0 0 0 0-72.81777777zM75.09333333 620.51214222a36.40888889 36.40888889 0 1 0 0 72.81777778 36.40888889 36.40888889 0 0 0 0-72.81777778zM694.04444445 256.56888889000004H38.68444445a36.40888889 36.40888889 0 0 0 0 72.81777778h655.36a145.63555555 145.63555555 0 1 1-145.63555556 143.05052444 36.40888889 36.40888889 0 1 0-72.81777778 0.72817778V475.02222222a218.45333333 218.45333333 0 1 0 218.45333334-218.45333333zM329.95555555 620.51214222a36.40888889 36.40888889 0 1 0-0.03640888 72.81777778 36.40888889 36.40888889 0 0 0 0-72.81777778zM38.68444445 147.34222222000005h946.6311111a36.40888889 36.40888889 0 0 0 0-72.81777777H38.68444445a36.40888889 36.40888889 0 0 0 0 72.81777777z"  horiz-adv-x="1024" />

    
    <glyph glyph-name="weather-snow2" unicode="&#58913;" d="M605.86211555 603.76405333a145.63555555 145.63555555 0 0 0 191.98407112-218.01642666l-0.07281778 0.07281778a36.40888889 36.40888889 0 1 0-50.06222222 52.79288888 72.81777778 72.81777778 0 0 1-97.90350222 107.04213334l-0.07281778 0.07281778a36.40888889 36.40888889 0 0 0-43.87271112 58.03576888z m415.75310223-148.73031111a36.40888889 36.40888889 0 0 0-36.40888889-36.40888889h-36.40888889a36.40888889 36.40888889 0 0 0 0 72.81777778h36.40888889a36.40888889 36.40888889 0 0 0 36.40888889-36.40888889z m-411.60248889 326.69696a36.40888889 36.40888889 0 0 0 43.69066666-27.30666667l8.15559112-35.42584888a36.40888889 36.40888889 0 0 0-70.92451556-16.384l-8.192 35.46225778a36.40888889 36.40888889 0 0 0 27.30666667 43.69066666zM917.95911111 710.76977778a36.40888889 36.40888889 0 0 0 5.38851556-51.19089778l-22.9376-28.28970667a36.40888889 36.40888889 0 1 0-56.57941334 45.80238222l22.9376 28.28970667A36.40888889 36.40888889 0 0 0 917.95911111 710.76977778zM582.92451555 123.93130667000003c60.6208 10.63139555 111.04711111 64.98986667 111.04711112 128.30492444A128.70542222 128.70542222 0 0 1 565.01134222 380.7232c0 99.32344889-80.82773333 179.85991111-180.47886222 179.85991111-99.68753778 0-180.51527111-80.53646222-180.51527111-179.85991111A128.70542222 128.70542222 0 0 1 75.09333333 252.19982222c0-63.42428445 52.10112-117.89198222 112.94037334-128.37774222a36.40888889 36.40888889 0 0 0-6.00746667-72.56291555C81.79256889 57.23022221999997 2.27555555 141.73525332999998 2.27555555 245.10008889000005c0 89.67509333 59.85621333 165.15072 141.19367112 187.46936889 22.35505778 114.50595555 121.78773333 200.83143111 241.02684444 200.83143111 119.31192889 0 218.74460445-86.32547555 241.06325334-200.83143111 81.33745778-22.31864889 141.19367111-97.79427555 141.1936711-187.50577778 0-102.56384-78.27911111-186.55914667-177.49333333-193.65888a36.40888889 36.40888889 0 0 0-6.33514667 72.49009778z m-215.5770311-3.38602667v28.87224889a18.20444445 18.20444445 0 1 0 36.40888888 0v-28.87224889l20.38897778 20.38897778a18.20444445 18.20444445 0 1 0 25.77749334-25.74108445l-20.42538667-20.38897778h28.87224889a18.20444445 18.20444445 0 1 0 0-36.40888888h-28.87224889l20.38897777-20.38897778a18.20444445 18.20444445 0 0 0-25.74108444-25.77749334l-20.38897778 20.38897778v-28.83584a18.20444445 18.20444445 0 1 0-36.40888888 0V32.65422221999995l-20.38897778-20.42538667a18.20444445 18.20444445 0 0 0-25.77749334 25.74108445l20.38897778 20.38897778h-28.83584a18.20444445 18.20444445 0 1 0 0 36.40888889h28.87224889l-20.42538667 20.42538666a18.20444445 18.20444445 0 0 0 25.74108445 25.77749334l20.38897777-20.42538667z"  horiz-adv-x="1024" />

    
    <glyph glyph-name="pipeline" unicode="&#58914;" d="M170.13081533 464.43980815h130.71468826c17.59620803 0 30.16492806-12.56872002 30.16492805-30.16492804v-95.5222722c0-218.69572844 178.47582434-397.17155278 397.17155279-397.17155278H851.35544067v-52.78862409h175.96208035V346.29383993H851.35544067v-45.24739211h-130.71468825c-17.59620803 0-30.16492806 12.56872002-30.16492808 30.16492808v95.52227217C690.47582434 645.42937651 512 823.90520086 293.30427156 823.90520086h-123.17345623v52.78862411h-175.96208033v-457.50140891h175.96208033v45.24739209z m472.58387292-133.22843225c0-45.24739209 35.19241606-80.43980815 80.43980816-80.43980816h155.85212833v-261.42937652h-148.3108963c-191.04454438 0-346.89667269 155.85212829-346.89667271 346.89667267v95.52227222c0 45.24739209-35.19241606 80.43980815-80.43980815 80.43980816H147.50711927v263.94312051h148.3108963c191.04454438 0 346.89667269-155.85212829 346.89667268-346.89667269v-98.03601619z m336.84169668-392.14406479h-75.41232015V298.53270383999995h75.41232015v-359.46539273zM134.93839925 786.1990408z m-90.49478418 42.73364809h75.41232015v-359.46539273h-75.41232015V828.93268889zM134.93839925 497.11848021z"  horiz-adv-x="1024" />

    
    <glyph glyph-name="weather-snow7" unicode="&#58915;" d="M146.27271111 77.98328889000004a254.97144889 254.97144889 0 0 0 44.30961778 475.68213333C220.3648 703.92490667 352.96597333 817.26577778 512 817.26577778c159.07043555 0 291.6352-113.34087111 321.41767111-263.63676445a254.97144889 254.97144889 0 0 0 44.41884444-475.57290666l-0.07281777-0.03640889a36.40888889 36.40888889 0 0 0-31.23882667 65.79086222A182.04444445 182.04444445 0 0 1 766.86222222 489.58577778a254.86222222 254.86222222 0 0 1-509.72444444 0 182.04444445 182.04444445 0 0 1-78.13347556-346.53980445 36.40888889 36.40888889 0 1 0-32.768-65.06268444zM366.36444445 85.70197332999999V114.57422222000002a18.20444445 18.20444445 0 1 0 36.40888888 0v-28.87224889l20.38897778 20.38897778a18.20444445 18.20444445 0 1 0 25.77749334-25.70467556l-20.38897778-20.42538666H457.38666667a18.20444445 18.20444445 0 1 0 0-36.40888889h-28.87224889l20.38897777-20.38897778a18.20444445 18.20444445 0 0 0-25.70467555-25.77749333L402.77333333-2.2254933299999493V-31.061333330000025a18.20444445 18.20444445 0 1 0-36.40888888 0v28.87224888l-20.38897778-20.38897777a18.20444445 18.20444445 0 0 0-25.77749334 25.70467555l20.38897778 20.42538667H311.75111111a18.20444445 18.20444445 0 1 0 0 36.40888889h28.87224889l-20.38897778 20.38897778a18.20444445 18.20444445 0 0 0 25.70467556 25.77749333L366.36444445 85.73838221999995z m254.86222222 0V114.57422222000002a18.20444445 18.20444445 0 1 0 36.40888888 0v-28.87224889l20.38897778 20.38897778a18.20444445 18.20444445 0 1 0 25.77749334-25.70467556l-20.38897778-20.42538666H712.24888889a18.20444445 18.20444445 0 1 0 0-36.40888889h-28.87224889l20.38897778-20.38897778a18.20444445 18.20444445 0 0 0-25.70467556-25.77749333L657.63555555-2.2254933299999493V-31.061333330000025a18.20444445 18.20444445 0 1 0-36.40888888 0v28.87224888l-20.38897778-20.38897777a18.20444445 18.20444445 0 0 0-25.77749334 25.70467555l20.38897778 20.42538667H566.61333333a18.20444445 18.20444445 0 1 0 0 36.40888889h28.87224889l-20.38897777 20.38897778a18.20444445 18.20444445 0 0 0 25.70467555 25.77749333L621.22666667 85.73838221999995z"  horiz-adv-x="1024" />

    
    <glyph glyph-name="weather-snow8" unicode="&#58916;" d="M146.27271111 75.79875555000001a254.97144889 254.97144889 0 0 0 44.30961778 475.68213334C220.3648 701.74037333 352.96597333 815.08124445 512 815.08124445c159.07043555 0 291.6352-113.34087111 321.41767111-263.63676445a254.97144889 254.97144889 0 0 0 44.41884444-475.57290667l-0.07281777-0.03640888a36.40888889 36.40888889 0 0 0-31.23882667 65.79086222A182.04444445 182.04444445 0 0 1 766.86222222 487.40124445a254.86222222 254.86222222 0 0 1-509.72444444 0 182.04444445 182.04444445 0 0 1-78.13347556-346.53980445 36.40888889 36.40888889 0 1 0-32.768-65.06268445z m136.35128889 12.01493334v28.87224889a18.20444445 18.20444445 0 1 0 36.40888889 0v-28.83584l20.38897778 20.38897777a18.20444445 18.20444445 0 0 0 25.77749333-25.74108444l-20.38897778-20.38897778H373.64622222a18.20444445 18.20444445 0 1 0 0-36.40888888h-28.87224889l20.38897778-20.42538667a18.20444445 18.20444445 0 0 0-25.70467556-25.74108445l-20.42538666 20.38897778v-28.87224889a18.20444445 18.20444445 0 0 0-36.40888889 0v28.87224889l-20.38897778-20.38897778a18.20444445 18.20444445 0 1 0-25.77749333 25.74108445l20.38897778 20.38897777H228.01066667a18.20444445 18.20444445 0 0 0 0 36.4088889h28.87224888l-20.38897777 20.42538666a18.20444445 18.20444445 0 0 0 25.70467555 25.74108444l20.42538667-20.38897777z m211.17155555 0v28.87224889a18.20444445 18.20444445 0 1 0 36.4088889 0v-28.83584l20.38897777 20.38897777a18.20444445 18.20444445 0 0 0 25.77749333-25.74108444l-20.38897777-20.38897778H584.81777778a18.20444445 18.20444445 0 1 0 0-36.40888888h-28.87224889l20.38897778-20.42538667a18.20444445 18.20444445 0 0 0-25.70467556-25.74108445L530.20444445-0.07736889000000247v-28.87224889a18.20444445 18.20444445 0 0 0-36.4088889 0v28.87224889l-20.38897777-20.38897778a18.20444445 18.20444445 0 1 0-25.77749333 25.74108445l20.38897777 20.38897777H439.18222222a18.20444445 18.20444445 0 0 0 0 36.4088889h28.87224889l-20.38897778 20.42538666a18.20444445 18.20444445 0 0 0 25.70467556 25.74108444L493.79555555 87.85009778000006z m206.1471289 0v28.87224889a18.20444445 18.20444445 0 1 0 36.40888888 0v-28.83584l20.42538667 20.38897777a18.20444445 18.20444445 0 0 0 25.74108445-25.74108444l-20.38897778-20.38897778h28.83584a18.20444445 18.20444445 0 1 0 0-36.40888888h-28.87224889l20.42538667-20.42538667a18.20444445 18.20444445 0 0 0-25.74108445-25.74108445l-20.38897778 20.38897778v-28.87224889a18.20444445 18.20444445 0 0 0-36.40888889 0v28.87224889l-20.42538666-20.38897778a18.20444445 18.20444445 0 1 0-25.74108445 25.74108445l20.38897778 20.38897777h-28.87224889a18.20444445 18.20444445 0 0 0 0 36.4088889h28.87224889l-20.38897778 20.42538666a18.20444445 18.20444445 0 1 0 25.74108445 25.74108444l20.38897778-20.38897777z"  horiz-adv-x="1024" />

    
    <glyph glyph-name="weather-sand-storm3" unicode="&#58917;" d="M202.45162667 567.53720889a36.40888889 36.40888889 0 1 0 0 72.81777778 36.40888889 36.40888889 0 0 0 0-72.81777778zM75.09333333 456.99982222a36.40888889 36.40888889 0 1 0 0 72.81777778 36.40888889 36.40888889 0 0 0 0-72.81777778z m254.86222222 0a36.40888889 36.40888889 0 1 0-0.03640888 72.81777778 36.40888889 36.40888889 0 0 0 0-72.81777778zM75.09333333 675.27111111a36.40888889 36.40888889 0 1 0 0 72.81777778 36.40888889 36.40888889 0 0 0 0-72.81777778z m254.86222222 0a36.40888889 36.40888889 0 1 0-0.03640888 72.81777778 36.40888889 36.40888889 0 0 0 0-72.81777778zM75.09333333 19.947520000000054a36.40888889 36.40888889 0 1 0 0 72.81777778 36.40888889 36.40888889 0 0 0 0-72.81777778zM220.76529778 92.72888889000001h72.89059555a36.40888889 36.40888889 0 1 0 0-72.81777778H220.72888889a36.40888889 36.40888889 0 0 0 0 72.81777778z m476.70158222 218.59896889A218.45333333 218.45333333 0 1 1 475.59111111 527.15975111a36.40888889 36.40888889 0 1 1 72.81777778 0v2.62144a145.63555555 145.63555555 0 1 0 145.63555556-145.63555556V384H38.68444445a36.40888889 36.40888889 0 0 1 0-72.81777778h655.36c1.16508445 0 2.29376 0.03640889 3.42243555 0.14563556zM907.10926222 238.36444444999995a109.22666667 109.22666667 0 0 0 10.77703111-218.19847112 36.40888889 36.40888889 0 0 0-5.89824 72.45368889v0.25486223H912.49777778a36.40888889 36.40888889 0 0 1 2.18453333 72.74496L912.49777778 165.54666667000004H38.68444445a36.40888889 36.40888889 0 0 0 0 72.81777778h868.42481777zM693.53472 63.01923554999996v-13.3984711A36.40888889 36.40888889 0 0 0 657.74478222 19.91111110999998H584.81777778a36.40888889 36.40888889 0 0 0 0 72.81777778h72.89059555a36.40888889 36.40888889 0 0 0 35.78993778-29.70965334zM439.18222222 19.91111110999998a36.40888889 36.40888889 0 1 0 0 72.81777778 36.40888889 36.40888889 0 0 0 0-72.81777778z"  horiz-adv-x="1024" />

    
    <glyph glyph-name="weather-snow4" unicode="&#58918;" d="M257.13777778 201.95555554999999h509.72444444a182.04444445 182.04444445 0 0 1 0 364.0888889 254.86222222 254.86222222 0 0 1-509.72444444 0 182.04444445 182.04444445 0 0 1 0-364.0888889z m0-72.81777777a254.86222222 254.86222222 0 0 0-66.55544889 500.94990222C220.3648 780.38357333 352.96597333 893.72444445 512 893.72444445c159.07043555 0 291.6352-113.34087111 321.41767111-263.63676445A254.86222222 254.86222222 0 0 0 766.86222222 129.13777777999996H257.13777778z m491.52-119.89447111V38.115555549999954a18.20444445 18.20444445 0 1 0 36.40888889 0v-28.87224888l20.38897778 20.38897778a18.20444445 18.20444445 0 0 0 25.77749333-25.70467556L810.84416-16.49777777999998H839.68a18.20444445 18.20444445 0 1 0 0-36.40888889h-28.87224889l20.38897778-20.38897778a18.20444445 18.20444445 0 0 0-25.70467556-25.77749333L785.06666667-78.68416000000002V-107.51999999999998a18.20444445 18.20444445 0 1 0-36.40888889 0v28.87224889l-20.38897778-20.38897778a18.20444445 18.20444445 0 0 0-25.77749333 25.70467556L722.88028445-52.90666667000005H694.04444445a18.20444445 18.20444445 0 1 0 0 36.40888889h28.87224888l-20.38897778 20.38897778a18.20444445 18.20444445 0 0 0 25.70467556 25.77749333L748.65777778 9.279715549999992z m-254.86222223 0V38.115555549999954a18.20444445 18.20444445 0 1 0 36.4088889 0v-28.87224888l20.38897777 20.38897778a18.20444445 18.20444445 0 0 0 25.77749333-25.70467556L555.98193778-16.49777777999998H584.81777778a18.20444445 18.20444445 0 1 0 0-36.40888889h-28.87224889l20.38897778-20.38897778a18.20444445 18.20444445 0 0 0-25.70467556-25.77749333L530.20444445-78.68416000000002V-107.51999999999998a18.20444445 18.20444445 0 1 0-36.4088889 0v28.87224889l-20.38897777-20.38897778a18.20444445 18.20444445 0 0 0-25.77749333 25.70467556L468.01806222-52.90666667000005H439.18222222a18.20444445 18.20444445 0 1 0 0 36.40888889h28.87224889l-20.38897778 20.38897778a18.20444445 18.20444445 0 0 0 25.70467556 25.77749333L493.79555555 9.279715549999992z m-254.86222222 0V38.115555549999954a18.20444445 18.20444445 0 1 0 36.40888889 0v-28.87224888l20.38897778 20.38897778a18.20444445 18.20444445 0 0 0 25.77749333-25.70467556L301.11971555-16.49777777999998H329.95555555a18.20444445 18.20444445 0 1 0 0-36.40888889h-28.87224888l20.38897778-20.38897778a18.20444445 18.20444445 0 0 0-25.70467556-25.77749333L275.34222222-78.68416000000002V-107.51999999999998a18.20444445 18.20444445 0 1 0-36.40888889 0v28.87224889l-20.38897778-20.38897778a18.20444445 18.20444445 0 0 0-25.77749333 25.70467556L213.15584-52.90666667000005H184.32a18.20444445 18.20444445 0 1 0 0 36.40888889h28.87224889l-20.38897778 20.38897778a18.20444445 18.20444445 0 0 0 25.70467556 25.77749333L238.93333333 9.279715549999992z"  horiz-adv-x="1024" />

    
    <glyph glyph-name="weather-rain21" unicode="&#58919;" d="M257.13777778 201.95555554999999h509.72444444a182.04444445 182.04444445 0 0 1 0 364.0888889 254.86222222 254.86222222 0 0 1-509.72444444 0 182.04444445 182.04444445 0 0 1 0-364.0888889z m0-72.81777777a254.86222222 254.86222222 0 0 0-66.55544889 500.94990222C220.3648 780.38357333 352.96597333 893.72444445 512 893.72444445c159.07043555 0 291.6352-113.34087111 321.41767111-263.63676445A254.86222222 254.86222222 0 0 0 766.86222222 129.13777777999996H257.13777778z m491.52-119.89447111V38.115555549999954a18.20444445 18.20444445 0 1 0 36.40888889 0v-28.87224888l20.38897778 20.38897778a18.20444445 18.20444445 0 0 0 25.77749333-25.70467556L810.84416-16.49777777999998H839.68a18.20444445 18.20444445 0 1 0 0-36.40888889h-28.87224889l20.38897778-20.38897778a18.20444445 18.20444445 0 0 0-25.70467556-25.77749333L785.06666667-78.68416000000002V-107.51999999999998a18.20444445 18.20444445 0 1 0-36.40888889 0v28.87224889l-20.38897778-20.38897778a18.20444445 18.20444445 0 0 0-25.77749333 25.70467556L722.88028445-52.90666667000005H694.04444445a18.20444445 18.20444445 0 1 0 0 36.40888889h28.87224888l-20.38897778 20.38897778a18.20444445 18.20444445 0 0 0 25.70467556 25.77749333L748.65777778 9.279715549999992z m-254.86222223 0V38.115555549999954a18.20444445 18.20444445 0 1 0 36.4088889 0v-28.87224888l20.38897777 20.38897778a18.20444445 18.20444445 0 0 0 25.77749333-25.70467556L555.98193778-16.49777777999998H584.81777778a18.20444445 18.20444445 0 1 0 0-36.40888889h-28.87224889l20.38897778-20.38897778a18.20444445 18.20444445 0 0 0-25.70467556-25.77749333L530.20444445-78.68416000000002V-107.51999999999998a18.20444445 18.20444445 0 1 0-36.4088889 0v28.87224889l-20.38897777-20.38897778a18.20444445 18.20444445 0 0 0-25.77749333 25.70467556L468.01806222-52.90666667000005H439.18222222a18.20444445 18.20444445 0 1 0 0 36.40888889h28.87224889l-20.38897778 20.38897778a18.20444445 18.20444445 0 0 0 25.70467556 25.77749333L493.79555555 9.279715549999992z m-254.86222222 0V38.115555549999954a18.20444445 18.20444445 0 1 0 36.40888889 0v-28.87224888l20.38897778 20.38897778a18.20444445 18.20444445 0 0 0 25.77749333-25.70467556L301.11971555-16.49777777999998H329.95555555a18.20444445 18.20444445 0 1 0 0-36.40888889h-28.87224888l20.38897778-20.38897778a18.20444445 18.20444445 0 0 0-25.70467556-25.77749333L275.34222222-78.68416000000002V-107.51999999999998a18.20444445 18.20444445 0 1 0-36.40888889 0v28.87224889l-20.38897778-20.38897778a18.20444445 18.20444445 0 0 0-25.77749333 25.70467556L213.15584-52.90666667000005H184.32a18.20444445 18.20444445 0 1 0 0 36.40888889h28.87224889l-20.38897778 20.38897778a18.20444445 18.20444445 0 0 0 25.70467556 25.77749333L238.93333333 9.279715549999992z"  horiz-adv-x="1024" />

    
    <glyph glyph-name="weather-sand-storm4" unicode="&#58920;" d="M75.09333333-52.724622220000015a36.40888889 36.40888889 0 1 0 0 72.81777777 36.40888889 36.40888889 0 0 0 0-72.81777777z m145.67196445 72.74496h72.89059555a36.40888889 36.40888889 0 1 0 0-72.81777778H220.72888889a36.40888889 36.40888889 0 1 0 0 72.81777778z m218.45333333-72.74496a36.40888889 36.40888889 0 1 0-0.03640889 72.81777777 36.40888889 36.40888889 0 0 0 0-72.81777777z m254.86222222 436.87025777H38.68444445a36.40888889 36.40888889 0 1 0 0 72.81777778v-0.03640888h655.36a145.63555555 145.63555555 0 1 1-145.63555556 143.01411555 36.40888889 36.40888889 0 1 0-72.81777778 0.72817778v1.82044444A218.45333333 218.45333333 0 0 0 694.04444445 820.90666667a218.45333333 218.45333333 0 1 0 0-436.76103112zM908.09230222 238.36444444999995H38.68444445a36.40888889 36.40888889 0 0 0 0 72.81777777h873.81333333c0.69176889 0 1.34712889 0 2.00248889-0.07281777a36.40888889 36.40888889 0 0 1-2.51221334 72.74496v0.2912711a36.40888889 36.40888889 0 1 0 5.89824 72.38087112A109.22666667 109.22666667 0 0 0 908.09230222 238.36444444999995z m-2.22094222-72.81777778a109.22666667 109.22666667 0 0 0 12.01493333-218.08924445 36.40888889 36.40888889 0 0 0-5.89824 72.38087111v0.32768H912.49777778a36.40888889 36.40888889 0 0 1 2.83989333 72.67214222A36.91861333 36.91861333 0 0 0 912.49777778 92.72888889000001H38.68444445a36.40888889 36.40888889 0 0 0 0 72.81777778h867.18691555zM584.85418667 20.020337779999977h72.89059555a36.40888889 36.40888889 0 1 0 0-72.81777778H584.81777778a36.40888889 36.40888889 0 1 0 0 72.81777778zM75.12974222 566.04444445a36.40888889 36.40888889 0 1 0-0.03640889 72.81777777 36.40888889 36.40888889 0 0 0 0-72.81777777z m145.63555556 72.74496H366.36444445a36.40888889 36.40888889 0 1 0 0-72.81777778H220.76529778a36.40888889 36.40888889 0 1 0 0 72.81777778z"  horiz-adv-x="1024" />

    
    <glyph glyph-name="weather-fog" unicode="&#58921;" d="M782.08113778 183.75111111H709.33617778a218.45333333 218.45333333 0 1 1-384.29582223 0h-83.12149333a291.27111111 291.27111111 0 1 0 540.19868445 0zM512 802.70222222a36.40888889 36.40888889 0 0 0 36.40888889-36.40888889v-109.22666666a36.40888889 36.40888889 0 0 0-72.81777778 0v109.22666666a36.40888889 36.40888889 0 0 0 36.40888889 36.40888889z m360.448-149.27644444a36.40888889 36.40888889 0 0 0 0-51.51857778l-77.25966222-77.22325333a36.40888889 36.40888889 0 0 0-51.48216889 51.48216888L820.92942222 653.42577778a36.40888889 36.40888889 0 0 0 51.48216889 0zM1021.72444445 292.97777778a36.40888889 36.40888889 0 0 0-36.4088889-36.40888889h-109.22666666a36.40888889 36.40888889 0 0 0 0 72.81777778h109.22666666a36.40888889 36.40888889 0 0 0 36.4088889-36.40888889z m-1019.4488889 0a36.40888889 36.40888889 0 0 0 36.4088889 36.40888889h109.22666666a36.40888889 36.40888889 0 0 0 0-72.81777778H38.68444445a36.40888889 36.40888889 0 0 0-36.4088889 36.40888889z m149.27644445 360.448a36.40888889 36.40888889 0 0 0 51.51857778 0l77.22325333-77.25966223a36.40888889 36.40888889 0 1 0-51.48216889-51.48216888L151.552 601.9072a36.40888889 36.40888889 0 0 0 0 51.48216889zM38.68444445 183.75111111h946.6311111a36.40888889 36.40888889 0 0 0 0-72.81777778H38.68444445a36.40888889 36.40888889 0 0 0 0 72.81777778z m0-145.63555556h946.6311111a36.40888889 36.40888889 0 0 0 0-72.81777777H38.68444445a36.40888889 36.40888889 0 0 0 0 72.81777777z"  horiz-adv-x="1024" />

    
    <glyph glyph-name="weather-sand-storm1" unicode="&#58922;" d="M257.13777778 511.43111111a36.40888889 36.40888889 0 1 0 0 72.81777778 36.40888889 36.40888889 0 0 0 0-72.81777778z m254.86222222 0a36.40888889 36.40888889 0 1 0 0 72.81777778 36.40888889 36.40888889 0 0 0 0-72.81777778z m254.86222222 0a36.40888889 36.40888889 0 1 0 0 72.81777778 36.40888889 36.40888889 0 0 0 0-72.81777778zM111.50222222 365.79555555a36.40888889 36.40888889 0 1 0 0 72.81777778 36.40888889 36.40888889 0 0 0 0-72.81777778z m266.98638223 0a36.40888889 36.40888889 0 1 0 0 72.81777778 36.40888889 36.40888889 0 0 0 0-72.81777778z m267.0227911 0a36.40888889 36.40888889 0 1 0 0 72.81777778 36.40888889 36.40888889 0 0 0 0-72.81777778zM912.49777778 365.79555555a36.40888889 36.40888889 0 1 0 0 72.81777778 36.40888889 36.40888889 0 0 0 0-72.81777778zM111.50222222 657.06666667a36.40888889 36.40888889 0 1 0 0 72.81777778 36.40888889 36.40888889 0 0 0 0-72.81777778z m266.98638223 0a36.40888889 36.40888889 0 1 0 0 72.81777778 36.40888889 36.40888889 0 0 0 0-72.81777778z m267.0227911 0a36.40888889 36.40888889 0 1 0 0 72.81777778 36.40888889 36.40888889 0 0 0 0-72.81777778zM912.49777778 657.06666667a36.40888889 36.40888889 0 1 0 0 72.81777778 36.40888889 36.40888889 0 0 0 0-72.81777778zM38.68444445 256.56888889000004h946.6311111a36.40888889 36.40888889 0 0 0 0-72.81777778H38.68444445a36.40888889 36.40888889 0 0 0 0 72.81777778z m0-145.63555556h946.6311111a36.40888889 36.40888889 0 0 0 0-72.81777778H38.68444445a36.40888889 36.40888889 0 0 0 0 72.81777778z"  horiz-adv-x="1024" />

    
    <glyph glyph-name="weather-rain9" unicode="&#58923;" d="M204.05361778 264.32398221999995h361.03054222A128.74183111 128.74183111 0 0 1 694.04444445 392.84736c0 70.96092445-57.74449778 128.48696889-128.96028445 128.48696889 0 99.35985778-80.82773333 179.89632-180.51527111 179.89632s-180.51527111-80.53646222-180.51527111-179.89632A128.74183111 128.74183111 0 0 1 75.09333333 392.81095111c0-70.96092445 57.74449778-128.48696889 128.96028445-128.48696889z m-10.63139556-72.81777777c-105.58577778 0-191.14666667 86.94442667-191.14666667 194.20501333 0 89.67509333 59.85621333 165.18712889 141.23008 187.50577777C165.82428445 687.7229511099999 265.29336889 774.04842667 384.56888889 774.04842667c119.27552 0 218.74460445-86.32547555 241.06325333-200.86784C707.00600889 550.89834667 766.86222222 475.38631111 766.86222222 385.67480889c0-107.22417778-85.56088889-194.16860445-191.14666667-194.16860444H193.42222222z m-96.59278222-69.1768889a36.40888889 36.40888889 0 0 0 17.58549333-48.42382222l-30.76551111-65.97290666a36.40888889 36.40888889 0 0 0-66.00931555 30.76551111l30.80192 66.00931555a36.40888889 36.40888889 0 0 0 48.38741333 17.62190222z m373.11829333 0a36.40888889 36.40888889 0 0 0 17.62190222-48.42382222l-30.7655111-65.97290666a36.40888889 36.40888889 0 1 0-66.00931556 30.76551111l30.76551111 66.00931555a36.40888889 36.40888889 0 0 0 48.42382222 17.62190222z m364.08888889 0a36.40888889 36.40888889 0 0 0 17.62190223-48.42382222l-30.76551112-65.97290666a36.40888889 36.40888889 0 1 0-66.00931555 30.76551111l30.76551111 66.00931555a36.40888889 36.40888889 0 0 0 48.42382222 17.62190222z m-546.13333333-72.81777777a36.40888889 36.40888889 0 0 0 17.62190222-48.42382223l-30.76551111-65.97290666a36.40888889 36.40888889 0 1 0-66.00931555 30.76551111l30.7655111 66.00931555a36.40888889 36.40888889 0 0 0 48.42382223 17.62190223z m364.08888889 0a36.40888889 36.40888889 0 0 0 17.62190222-48.42382223l-30.76551111-65.97290666a36.40888889 36.40888889 0 1 0-66.00931556 30.76551111l30.76551112 66.00931555a36.40888889 36.40888889 0 0 0 48.42382222 17.62190223z m336.74581333 0a36.40888889 36.40888889 0 0 0 17.58549334-48.42382223l-30.76551112-65.97290666a36.40888889 36.40888889 0 1 0-65.97290666 30.76551111l30.76551111 66.00931555a36.40888889 36.40888889 0 0 0 48.38741333 17.62190223zM521.24785778 816.17351111a61.2352 61.2352 0 0 0 5.53415111 3.16757334c32.95004445 16.49322667 73.43672889 27.52512 112.64910222 27.52512 119.27552 0 218.74460445-86.32547555 241.06325334-200.86784C961.86823111 623.71612445 1021.72444445 548.20408889 1021.72444445 458.49258667c0-107.22417778-85.56088889-194.16860445-191.14666667-194.16860445h-16.89372445v0.03640889a36.40888889 36.40888889 0 0 0 0 72.74496v0.03640889h6.26232889A128.74183111 128.74183111 0 0 1 948.90666667 465.66513778c0 70.96092445-57.74449778 128.48696889-128.96028445 128.48696889 0 99.35985778-80.82773333 179.89632-180.51527111 179.89632-29.27274667 0-62.36842667-15.47377778-88.03669333-24.13909334a34.22435555 34.22435555 0 0 0-22.31864889-0.07281778 36.40888889 36.40888889 0 0 0-7.82791111 66.33699556z"  horiz-adv-x="1024" />

    
    <glyph glyph-name="weather-snow6" unicode="&#58924;" d="M204.05361778 311.18222221999997h361.03054222A128.74183111 128.74183111 0 0 1 694.04444445 439.7056c0 70.96092445-57.74449778 128.48696889-128.96028445 128.48696889C565.08416 667.5524266699999 484.25642667 748.08888889 384.56888889 748.08888889s-180.51527111-80.53646222-180.51527111-179.89632A128.74183111 128.74183111 0 0 1 75.09333333 439.66919111C75.09333333 368.70826666999994 132.83783111 311.18222221999997 204.05361778 311.18222221999997zM193.42222222 238.36444444999995c-105.58577778 0-191.14666667 86.94442667-191.14666667 194.16860444 0 89.71150222 59.85621333 165.18712889 141.23008 187.50577778C165.82428445 734.54478222 265.29336889 820.90666667 384.56888889 820.90666667c119.27552 0 218.74460445-86.36188445 241.06325333-200.86784C707.00600889 597.72017778 766.86222222 522.24455111 766.86222222 432.53304889 766.86222222 325.30887111000004 681.30133333 238.36444444999995 575.71555555 238.36444444999995H193.42222222zM521.24785778 863.03175111a61.2352 61.2352 0 0 0 5.53415111 3.16757334C559.73205333 882.69255111 600.21873778 893.72444445 639.43111111 893.72444445c119.27552 0 218.74460445-86.36188445 241.06325334-200.86784C961.86823111 670.53795555 1021.72444445 595.06232889 1021.72444445 505.35082667 1021.72444445 398.12664889 936.16355555 311.18222221999997 830.57777778 311.18222221999997h-16.89372445v0.03640889a36.40888889 36.40888889 0 0 0 0 72.74496V384h6.26232889A128.74183111 128.74183111 0 0 1 948.90666667 512.5233777799999c0 70.96092445-57.74449778 128.48696889-128.96028445 128.48696889C819.94638222 740.37020445 739.11864889 820.90666667 639.43111111 820.90666667c-29.27274667 0-62.36842667-15.51018667-88.03669333-24.13909334a34.22435555 34.22435555 0 0 0-22.31864889-0.07281778 36.40888889 36.40888889 0 0 0-7.82791111 66.33699556zM493.79555555 153.34968889000004a18.20444445 18.20444445 0 1 0 36.4088889 0v-28.83584l20.38897777 20.38897778a18.20444445 18.20444445 0 0 0 25.77749333-25.74108445l-20.38897777-20.38897777H584.81777778a18.20444445 18.20444445 0 1 0 0-36.4088889h-28.87224889l20.38897778-20.42538666a18.20444445 18.20444445 0 0 0-25.70467556-25.74108444L530.20444445 36.58638222000002v-28.87224889a18.20444445 18.20444445 0 0 0-36.4088889 0v28.87224889l-20.38897777-20.38897777a18.20444445 18.20444445 0 1 0-25.77749333 25.74108444l20.38897777 20.38897778H439.18222222a18.20444445 18.20444445 0 0 0 0 36.40888888h28.87224889l-20.38897778 20.42538667a18.20444445 18.20444445 0 0 0 25.70467556 25.74108445L493.79555555 124.51384888999996V153.34968889000004z m382.40256 0a18.20444445 18.20444445 0 0 0 36.4088889 0v-28.83584l20.38897777 20.38897778a18.20444445 18.20444445 0 0 0 25.77749333-25.74108445l-20.38897777-20.38897777h28.83584a18.20444445 18.20444445 0 1 0 0-36.4088889H938.34808889l20.38897778-20.42538666a18.20444445 18.20444445 0 0 0-25.70467556-25.74108444l-20.38897778 20.38897777v-28.87224889a18.20444445 18.20444445 0 0 0-36.40888888 0v28.87224889l-20.42538667-20.38897777a18.20444445 18.20444445 0 1 0-25.77749333 25.74108444l20.42538666 20.38897778h-28.87224889a18.20444445 18.20444445 0 0 0 0 36.40888888h28.87224889l-20.38897778 20.42538667a18.20444445 18.20444445 0 1 0 25.74108445 25.74108445l20.38897777-20.38897778V153.34968889000004z m-764.22257777 0a18.20444445 18.20444445 0 1 0 36.40888889 0v-28.83584l20.38897778 20.38897778a18.20444445 18.20444445 0 0 0 25.77749333-25.74108445l-20.38897778-20.38897777h28.83584a18.20444445 18.20444445 0 1 0 0-36.4088889H174.12551111l20.42538667-20.42538666a18.20444445 18.20444445 0 0 0-25.74108445-25.74108444l-20.38897778 20.38897777v-28.87224889a18.20444445 18.20444445 0 0 0-36.40888888 0v28.87224889l-20.42538667-20.38897777a18.20444445 18.20444445 0 1 0-25.77749333 25.74108444l20.42538666 20.38897778h-28.87224888a18.20444445 18.20444445 0 0 0 0 36.40888888h28.87224888l-20.38897778 20.42538667a18.20444445 18.20444445 0 0 0 25.74108445 25.74108445l20.38897778-20.38897778V153.34968889000004zM302.64888889 38.115555549999954a18.20444445 18.20444445 0 1 0 36.40888889 0v-28.87224888l20.38897777 20.38897778a18.20444445 18.20444445 0 0 0 25.77749334-25.70467556L364.83527111-16.49777777999998H393.67111111a18.20444445 18.20444445 0 1 0 0-36.40888889h-28.87224889l20.38897778-20.38897778a18.20444445 18.20444445 0 0 0-25.70467555-25.77749333L339.05777778-78.68416000000002V-107.51999999999998a18.20444445 18.20444445 0 1 0-36.40888889 0v28.87224889l-20.38897778-20.38897778a18.20444445 18.20444445 0 0 0-25.77749333 25.70467556L276.87139555-52.90666667000005H248.03555555a18.20444445 18.20444445 0 1 0 0 36.40888889h28.8722489l-20.38897778 20.38897778a18.20444445 18.20444445 0 0 0 25.70467555 25.77749333L302.64888889 9.279715549999992V38.115555549999954z m382.29333333 0a18.20444445 18.20444445 0 1 0 36.40888889 0v-28.87224888l20.38897778 20.38897778a18.20444445 18.20444445 0 0 0 25.77749333-25.70467556L747.12860445-16.49777777999998H775.96444445a18.20444445 18.20444445 0 1 0 0-36.40888889h-28.8722489l20.38897778-20.38897778a18.20444445 18.20444445 0 0 0-25.70467555-25.77749333L721.35111111-78.68416000000002V-107.51999999999998a18.20444445 18.20444445 0 1 0-36.40888889 0v28.87224889l-20.38897777-20.38897778a18.20444445 18.20444445 0 0 0-25.77749334 25.70467556L659.16472889-52.90666667000005H630.32888889a18.20444445 18.20444445 0 1 0 0 36.40888889h28.87224889l-20.38897778 20.38897778a18.20444445 18.20444445 0 0 0 25.70467555 25.77749333L684.94222222 9.279715549999992V38.115555549999954z"  horiz-adv-x="1024" />

    
    <glyph glyph-name="weather-unknown" unicode="&#58925;" d="M475.77315555 96.36977778000005C479.30481778 183.60547555000005 584.81777778 235.08764444999997 584.81777778 274.77333333a72.81777778 72.81777778 0 1 1-145.63555556 0 36.40888889 36.40888889 0 0 0-72.81777777 0 145.63555555 145.63555555 0 1 0 291.2711111 0c0-80.46364445-109.84561778-100.63416889-109.04462222-182.04444444H548.40888889a36.40888889 36.40888889 0 1 0-72.63573334 3.64088889z m-329.50044444-14.7456a254.97144889 254.97144889 0 0 0 44.30961778 475.68213333C220.3648 707.56579555 352.96597333 820.90666667 512 820.90666667c159.07043555 0 291.6352-113.34087111 321.41767111-263.63676445a254.97144889 254.97144889 0 0 0 44.41884444-475.57290667l-0.07281777-0.03640888a36.40888889 36.40888889 0 0 0-31.23882667 65.79086222A182.04444445 182.04444445 0 0 1 766.86222222 493.22666667a254.86222222 254.86222222 0 0 1-509.72444444 0 182.04444445 182.04444445 0 0 1-78.13347556-346.53980445 36.40888889 36.40888889 0 1 0-32.768-65.06268444zM512 19.91111110999998a36.40888889 36.40888889 0 1 0 0-72.81777778 36.40888889 36.40888889 0 0 0 0 72.81777778z"  horiz-adv-x="1024" />

    
    <glyph glyph-name="weather-snow5" unicode="&#58926;" d="M257.13777778 201.95555554999999h509.72444444a182.04444445 182.04444445 0 0 1 0 364.0888889 254.86222222 254.86222222 0 0 1-509.72444444 0 182.04444445 182.04444445 0 0 1 0-364.0888889z m0-72.81777777a254.86222222 254.86222222 0 0 0-66.55544889 500.94990222C220.3648 780.38357333 352.96597333 893.72444445 512 893.72444445c159.07043555 0 291.6352-113.34087111 321.41767111-263.63676445A254.86222222 254.86222222 0 0 0 766.86222222 129.13777777999996H257.13777778z m364.30734222-119.89447111V38.115555549999954a18.20444445 18.20444445 0 0 0 36.40888889 0v-28.87224888l20.38897778 20.38897778a18.20444445 18.20444445 0 0 0 25.77749333-25.70467556L683.63150222-16.49777777999998h28.83584a18.20444445 18.20444445 0 1 0 0-36.40888889h-28.87224889l20.38897778-20.38897778a18.20444445 18.20444445 0 0 0-25.70467556-25.77749333l-20.42538666 20.38897778V-107.51999999999998a18.20444445 18.20444445 0 1 0-36.40888889 0v28.87224889l-20.38897778-20.38897778a18.20444445 18.20444445 0 0 0-25.77749333 25.70467556L595.66762667-52.90666667000005h-28.83584a18.20444445 18.20444445 0 0 0 0 36.40888889h28.87224888l-20.38897777 20.38897778a18.20444445 18.20444445 0 1 0 25.70467555 25.77749333l20.42538667-20.38897778z m254.86222222 0V38.115555549999954a18.20444445 18.20444445 0 0 0 36.40888889 0v-28.87224888l20.38897778 20.38897778a18.20444445 18.20444445 0 0 0 25.77749333-25.70467556L938.49372445-16.49777777999998h28.83584a18.20444445 18.20444445 0 1 0 0-36.40888889h-28.8722489l20.38897778-20.38897778a18.20444445 18.20444445 0 0 0-25.70467555-25.77749333l-20.42538667 20.38897778V-107.51999999999998a18.20444445 18.20444445 0 1 0-36.40888889 0v28.87224889l-20.38897777-20.38897778a18.20444445 18.20444445 0 0 0-25.77749334 25.70467556L850.52984889-52.90666667000005h-28.83584a18.20444445 18.20444445 0 0 0 0 36.40888889h28.87224889l-20.38897778 20.38897778a18.20444445 18.20444445 0 1 0 25.70467555 25.77749333l20.42538667-20.38897778z m-508.99626667 0V38.115555549999954a18.20444445 18.20444445 0 1 0 36.4088889 0v-28.87224888l20.38897777 20.38897778a18.20444445 18.20444445 0 0 0 25.77749333-25.70467556L429.49745778-16.49777777999998h28.83584a18.20444445 18.20444445 0 1 0 0-36.40888889h-28.87224889l20.42538666-20.38897778a18.20444445 18.20444445 0 0 0-25.74108444-25.77749333l-20.38897778 20.38897778V-107.51999999999998a18.20444445 18.20444445 0 1 0-36.40888888 0v28.87224889l-20.42538667-20.38897778a18.20444445 18.20444445 0 0 0-25.77749333 25.70467556L341.6064-52.90666667000005h-28.87224889a18.20444445 18.20444445 0 1 0 0 36.40888889h28.87224889l-20.38897778 20.38897778a18.20444445 18.20444445 0 1 0 25.74108445 25.77749333l20.38897778-20.38897778z m-254.13404444 0V38.115555549999954a18.20444445 18.20444445 0 1 0 36.40888889 0v-28.87224888l20.42538667 20.38897778a18.20444445 18.20444445 0 0 0 25.74108444-25.70467556L175.36341333-16.49777777999998h28.87224889a18.20444445 18.20444445 0 1 0 0-36.40888889h-28.87224889l20.38897778-20.38897778a18.20444445 18.20444445 0 0 0-25.74108444-25.77749333l-20.38897778 20.38897778V-107.51999999999998a18.20444445 18.20444445 0 1 0-36.40888889 0v28.87224889l-20.42538667-20.38897778a18.20444445 18.20444445 0 0 0-25.74108444 25.70467556L87.43594667-52.90666667000005h-28.83584a18.20444445 18.20444445 0 1 0 0 36.40888889h28.83584l-20.38897778 20.38897778a18.20444445 18.20444445 0 0 0 25.74108444 25.77749333l20.38897778-20.38897778z"  horiz-adv-x="1024" />

    
    <glyph glyph-name="weather-snow9" unicode="&#58927;" d="M146.27271111 114.93831110999997a254.97144889 254.97144889 0 0 0 44.30961778 475.64572444C220.3648 740.80711111 352.96597333 854.14798222 512 854.14798222c159.07043555 0 291.6352-113.34087111 321.41767111-263.63676444a254.97144889 254.97144889 0 0 0 44.41884444-475.57290667l-0.07281777-0.03640889a36.40888889 36.40888889 0 0 0-31.23882667 65.79086223A182.04444445 182.04444445 0 0 1 766.86222222 526.5043911099999a254.86222222 254.86222222 0 0 1-509.72444444 0 182.04444445 182.04444445 0 0 1-78.13347556-346.53980444 36.40888889 36.40888889 0 1 0-32.768-65.06268445z m3.56807111-66.15495111v28.87224889a18.20444445 18.20444445 0 1 0 36.40888889 0v-28.87224889l20.38897778 20.38897778a18.20444445 18.20444445 0 0 0 25.77749333-25.70467556l-20.42538667-20.38897777h28.8722489a18.20444445 18.20444445 0 1 0 0-36.4088889H211.99075555l20.38897778-20.46179555a18.20444445 18.20444445 0 0 0-25.70467555-25.74108445l-20.42538667 20.42538667v-28.87224889a18.20444445 18.20444445 0 0 0-36.40888889 0v28.87224889l-20.38897777-20.38897777A18.20444445 18.20444445 0 1 0 103.67431111-33.79200000000003l20.38897778 20.42538667h-28.83584a18.20444445 18.20444445 0 0 0 0 36.40888888h28.87224889l-20.38897778 20.38897778a18.20444445 18.20444445 0 0 0 25.70467555 25.77749334l20.38897778-20.38897778z m229.30318223 0v28.87224889a18.20444445 18.20444445 0 1 0 36.40888888 0v-28.87224889l20.42538667 20.38897778a18.20444445 18.20444445 0 0 0 25.74108445-25.70467556l-20.38897778-20.38897777h28.83584a18.20444445 18.20444445 0 1 0 0-36.4088889h-28.87224889l20.42538667-20.46179555a18.20444445 18.20444445 0 1 0-25.74108445-25.74108445l-20.38897778 20.42538667v-28.87224889a18.20444445 18.20444445 0 0 0-36.40888889 0v28.87224889l-20.42538666-20.38897777a18.20444445 18.20444445 0 1 0-25.74108445 25.70467555l20.38897778 20.42538667h-28.87224889a18.20444445 18.20444445 0 0 0 0 36.40888888h28.87224889l-20.38897778 20.38897778a18.20444445 18.20444445 0 0 0 25.74108445 25.77749334l20.38897778-20.38897778z m229.3395911 0v28.87224889a18.20444445 18.20444445 0 1 0 36.4088889 0v-28.87224889l20.38897777 20.38897778a18.20444445 18.20444445 0 0 0 25.74108445-25.70467556l-20.38897778-20.38897777H699.50577778a18.20444445 18.20444445 0 1 0 0-36.4088889h-28.87224889l20.38897778-20.46179555a18.20444445 18.20444445 0 1 0-25.74108445-25.74108445l-20.38897777 20.42538667v-28.87224889a18.20444445 18.20444445 0 0 0-36.4088889 0v28.87224889l-20.42538666-20.38897777a18.20444445 18.20444445 0 1 0-25.74108444 25.70467555l20.38897777 20.42538667H553.87022222a18.20444445 18.20444445 0 0 0 0 36.40888888h28.87224889l-20.42538666 20.38897778a18.20444445 18.20444445 0 0 0 25.74108444 25.77749334l20.38897778-20.38897778z m229.30318223 0v28.87224889a18.20444445 18.20444445 0 1 0 36.40888889 0v-28.87224889l20.38897778 20.38897778a18.20444445 18.20444445 0 0 0 25.77749333-25.70467556l-20.38897778-20.38897777h28.83584a18.20444445 18.20444445 0 1 0 0-36.4088889H899.93671111l20.38897778-20.46179555a18.20444445 18.20444445 0 1 0-25.70467556-25.74108445l-20.38897778 20.42538667v-28.87224889a18.20444445 18.20444445 0 0 0-36.40888888 0v28.87224889l-20.46179556-20.38897777A18.20444445 18.20444445 0 1 0 791.62026667-33.79200000000003l20.42538666 20.42538667h-28.87224888a18.20444445 18.20444445 0 0 0 0 36.40888888h28.87224888l-20.38897778 20.38897778a18.20444445 18.20444445 0 0 0 25.70467556 25.77749334l20.42538667-20.38897778z"  horiz-adv-x="1024" />

    
    <glyph glyph-name="weather-rain" unicode="&#58928;" d="M257.13777778 201.95555554999999h509.72444444a182.04444445 182.04444445 0 0 1 0 364.0888889 254.86222222 254.86222222 0 0 1-509.72444444 0 182.04444445 182.04444445 0 0 1 0-364.0888889z m0-72.81777777a254.86222222 254.86222222 0 0 0-66.55544889 500.94990222C220.3648 780.38357333 352.96597333 893.72444445 512 893.72444445c159.07043555 0 291.6352-113.34087111 321.41767111-263.63676445A254.86222222 254.86222222 0 0 0 766.86222222 129.13777777999996H257.13777778z m254.86222222-218.45333333c-30.14656 0-54.61333333 26.06876445-54.61333333 58.25422222 0 21.48124445 18.20444445 50.60835555 54.61333333 87.38133333 36.40888889-36.77297778 54.61333333-65.90008889 54.61333333-87.38133333 0-32.18545778-24.46677333-58.25422222-54.61333333-58.25422222z"  horiz-adv-x="1024" />

    
    <glyph glyph-name="weather-sunshine" unicode="&#58929;" d="M512 675.27111111a291.27111111 291.27111111 0 1 0 0-582.54222222 291.27111111 291.27111111 0 0 0 0 582.54222222z m5.20647111-78.02424889a218.45333333 218.45333333 0 1 1 0-436.90666667 218.45333333 218.45333333 0 0 1 0 436.90666667zM512 893.72444445a36.40888889 36.40888889 0 0 0 36.40888889-36.4088889v-109.22666666a36.40888889 36.40888889 0 0 0-72.81777778 0V857.31555555a36.40888889 36.40888889 0 0 0 36.40888889 36.4088889z m360.448-149.27644445a36.40888889 36.40888889 0 0 0 0-51.51857778l-77.25966222-77.22325333a36.40888889 36.40888889 0 1 0-51.48216889 51.48216889L820.92942222 744.448a36.40888889 36.40888889 0 0 0 51.48216889 0zM1021.72444445 384a36.40888889 36.40888889 0 0 0-36.4088889-36.40888889h-109.22666666a36.40888889 36.40888889 0 0 0 0 72.81777778h109.22666666a36.40888889 36.40888889 0 0 0 36.4088889-36.40888889zM872.448 23.55200000000002a36.40888889 36.40888889 0 0 0-51.51857778 0l-77.22325333 77.25966222a36.40888889 36.40888889 0 0 0 51.48216889 51.48216889l77.22325333-77.22325333a36.40888889 36.40888889 0 0 0 0-51.48216889zM512-125.72444444999996a36.40888889 36.40888889 0 0 0-36.40888889 36.4088889v109.22666666a36.40888889 36.40888889 0 0 0 72.81777778 0v-109.22666666a36.40888889 36.40888889 0 0 0-36.40888889-36.4088889zM151.552 23.55200000000002a36.40888889 36.40888889 0 0 0 0 51.51857778l77.25966222 77.22325333a36.40888889 36.40888889 0 1 0 51.48216889-51.48216889L203.07057778 23.55200000000002a36.40888889 36.40888889 0 0 0-51.48216889 0zM2.27555555 384a36.40888889 36.40888889 0 0 0 36.4088889 36.40888889h109.22666666a36.40888889 36.40888889 0 0 0 0-72.81777778H38.68444445a36.40888889 36.40888889 0 0 0-36.4088889 36.40888889z m149.27644445 360.448a36.40888889 36.40888889 0 0 0 51.51857778 0l77.22325333-77.25966222a36.40888889 36.40888889 0 1 0-51.48216889-51.48216889L151.552 692.92942222a36.40888889 36.40888889 0 0 0 0 51.48216889z"  horiz-adv-x="1024" />

    
    <glyph glyph-name="weather-rain2" unicode="&#58930;" d="M146.27271111 89.99822222a254.97144889 254.97144889 0 0 0 44.30961778 475.68213333C220.3648 715.93984 352.96597333 829.28071111 512 829.28071111c159.07043555 0 291.6352-113.34087111 321.41767111-263.63676444a254.97144889 254.97144889 0 0 0 44.41884444-475.57290667l-0.07281777-0.03640889a36.40888889 36.40888889 0 0 0-31.23882667 65.79086222A182.04444445 182.04444445 0 0 1 766.86222222 501.60071111a254.86222222 254.86222222 0 0 1-509.72444444 0 182.04444445 182.04444445 0 0 1-78.13347556-346.53980444 36.40888889 36.40888889 0 1 0-32.768-65.06268445z m171.92277334 32.18545778a36.40888889 36.40888889 0 0 0 17.58549333-48.42382222l-30.76551111-65.97290667a36.40888889 36.40888889 0 1 0-66.00931556 30.76551111l30.80192 66.00931556a36.40888889 36.40888889 0 0 0 48.38741334 17.62190222z m446.00888888 0a36.40888889 36.40888889 0 0 0 17.62190222-48.42382222l-30.7655111-65.97290667a36.40888889 36.40888889 0 0 0-66.00931556 30.80192l30.76551111 65.97290667a36.40888889 36.40888889 0 0 0 48.42382222 17.62190222zM495.43395555 143.41006222h85.63370667a36.40888889 36.40888889 0 0 0 37.57397333-51.51857777l-61.53102222-131.98222223a36.40888889 36.40888889 0 1 0-66.04572444 30.76551111l37.28270222 79.91751112h-90.00277333a36.40888889 36.40888889 0 0 0-32.58595556 52.79288888l61.53102223 131.98222222a36.40888889 36.40888889 0 1 0 66.00931555-30.7655111l-37.86524445-81.19182223z"  horiz-adv-x="1024" />

    
    <glyph glyph-name="weather-snow3" unicode="&#58932;" d="M257.13777778 201.95555554999999h509.72444444a182.04444445 182.04444445 0 0 1 0 364.0888889 254.86222222 254.86222222 0 0 1-509.72444444 0 182.04444445 182.04444445 0 0 1 0-364.0888889z m0-72.81777777a254.86222222 254.86222222 0 0 0-66.55544889 500.94990222C220.3648 780.38357333 352.96597333 893.72444445 512 893.72444445c159.07043555 0 291.6352-113.34087111 321.41767111-263.63676445A254.86222222 254.86222222 0 0 0 766.86222222 129.13777777999996H257.13777778z m400.49777777-119.89447111V38.115555549999954a18.20444445 18.20444445 0 1 0 36.4088889 0v-28.87224888l20.38897777 20.38897778a18.20444445 18.20444445 0 0 0 25.77749333-25.70467556L719.82193778-16.49777777999998H748.65777778a18.20444445 18.20444445 0 1 0 0-36.40888889h-28.87224889l20.38897778-20.38897778a18.20444445 18.20444445 0 0 0-25.70467556-25.77749333L694.04444445-78.68416000000002V-107.51999999999998a18.20444445 18.20444445 0 1 0-36.4088889 0v28.87224889l-20.38897777-20.38897778a18.20444445 18.20444445 0 0 0-25.77749333 25.70467556L631.85806222-52.90666667000005H603.02222222a18.20444445 18.20444445 0 1 0 0 36.40888889h28.87224889l-20.38897778 20.38897778a18.20444445 18.20444445 0 0 0 25.70467556 25.77749333L657.63555555 9.279715549999992zM329.95555555 38.115555549999954a18.20444445 18.20444445 0 1 0 36.4088889 0v-28.87224888l20.38897777 20.38897778a18.20444445 18.20444445 0 0 0 25.77749333-25.70467556L392.14193778-16.49777777999998H420.97777778a18.20444445 18.20444445 0 1 0 0-36.40888889h-28.87224889l20.38897778-20.38897778a18.20444445 18.20444445 0 0 0-25.70467556-25.77749333L366.36444445-78.68416000000002V-107.51999999999998a18.20444445 18.20444445 0 1 0-36.4088889 0v28.87224889l-20.38897777-20.38897778a18.20444445 18.20444445 0 0 0-25.77749333 25.70467556L304.17806222-52.90666667000005H275.34222222a18.20444445 18.20444445 0 1 0 0 36.40888889h28.87224889l-20.38897778 20.38897778a18.20444445 18.20444445 0 0 0 25.70467556 25.77749333L329.95555555 9.279715549999992V38.115555549999954z"  horiz-adv-x="1024" />

    
    <glyph glyph-name="weather-rain4" unicode="&#58933;" d="M257.13777778 201.95555554999999h509.72444444a182.04444445 182.04444445 0 0 1 0 364.0888889 254.86222222 254.86222222 0 0 1-509.72444444 0 182.04444445 182.04444445 0 0 1 0-364.0888889z m0-72.81777777a254.86222222 254.86222222 0 0 0-66.55544889 500.94990222C220.3648 780.38357333 352.96597333 893.72444445 512 893.72444445c159.07043555 0 291.6352-113.34087111 321.41767111-263.63676445A254.86222222 254.86222222 0 0 0 766.86222222 129.13777777999996H257.13777778z m163.84-218.45333333c-30.14656 0-54.61333333 26.06876445-54.61333333 58.25422222 0 21.48124445 18.20444445 50.60835555 54.61333333 87.38133333 36.40888889-36.77297778 54.61333333-65.90008889 54.61333333-87.38133333 0-32.18545778-24.46677333-58.25422222-54.61333333-58.25422222z m182.04444444 0c-30.14656 0-54.61333333 26.06876445-54.61333333 58.25422222 0 21.48124445 18.20444445 50.60835555 54.61333333 87.38133333 36.40888889-36.77297778 54.61333333-65.90008889 54.61333333-87.38133333 0-32.18545778-24.46677333-58.25422222-54.61333333-58.25422222z"  horiz-adv-x="1024" />

    
    <glyph glyph-name="pm25" unicode="&#58934;" d="M75.435 318.80499999999995c-21.561 0-39.111-16.71-39.111-37.305 0-20.58 17.55-37.319 39.11-37.319 21.59 0 39.14 16.74 39.14 37.32 0 20.593-17.55 37.304-39.14 37.304z m148.679 59.734c-17.252 0-31.29-13.398-31.29-29.881 0-16.427 13.981-29.767 31.29-29.853 17.28 0 31.331 13.398 31.331 29.853 0 16.426-13.994 29.795-31.331 29.866zM185.003 721.8199999999999c21.575 0 39.11 16.74 39.11 37.305 0 20.58-17.507 37.32-39.11 37.32-21.561 0-39.126-16.74-39.126-37.32 0-20.593 17.536-37.305 39.14-37.305z m696.462-59.704c17.251 0 31.289 13.397 31.289 29.852 0 16.427-13.952 29.767-31.29 29.852-17.265 0-31.302-13.397-31.302-29.852 0-16.427 13.98-29.767 31.289-29.852z m-242.631-74.624c30.25 0 54.812 23.424 54.812 52.238s-24.562 52.238-54.77 52.238c-30.208 0-54.77-23.424-54.77-52.238s24.562-52.238 54.756-52.238h-0.014zM411.96 662.116c-26.027-0.114-47.033-20.14-46.976-44.772-0.057-24.661 20.963-44.686 46.933-44.8 25.913 0 46.976 20.11 46.976 44.8 0.057 24.633-20.95 44.658-46.962 44.772h0.029z m409.941-405.149c-36.21 0-65.635-28.089-65.635-62.635 0-34.56 29.454-62.648 65.635-62.648 36.224 0 65.678 28.088 65.678 62.648 0 34.546-29.454 62.635-65.678 62.635z m-269.141-57.529c-17.28 0-31.332-13.397-31.332-29.866 0-16.413 13.995-29.753 31.332-29.839 17.251 0 31.289 13.398 31.289 29.853 0 16.426-13.98 29.795-31.29 29.852z m62.606 117.29c17.351-0.084 31.332-13.425 31.289-29.88 0-16.427-14.037-29.867-31.289-29.867-17.351 0.1-31.331 13.44-31.303 29.867 0 16.484 14.037 29.867 31.289 29.867zM761.643-39.139999999999986c-108.473 0-184.178 42.937-189.312 45.98-313.686 191.702-510.18 4.467-518.4-3.597a32.455 32.455 0 0 0-44.231-0.754 28.885 28.885 0 0 0-0.896 42.126c2.304 2.304 239.118 231.438 596.736 12.8 6.528-3.74 177.692-99.271 368.654 33.508a32.384 32.384 0 0 0 23.296 5.39 31.673 31.673 0 0 0 20.437-11.904c10.169-13.312 7.111-31.986-6.883-41.714-90.226-62.72-177.067-81.835-249.401-81.835zM123.705 530.617h79.73c44.785 0 67.171-19.115 67.171-57.344 0-38.5-22.656-57.885-67.442-57.885h-57.073v-79.744h-22.386V530.617z m22.386-19.385v-76.459h55.978c15.844 0 27.307 3.271 34.959 9.558 7.367 6.272 11.192 15.829 11.192 28.942 0 13.099-3.825 22.656-11.477 28.402-7.637 6.542-19.115 9.557-34.674 9.557h-55.978z m152.917 19.385v-194.973h22.386V490.752h0.825l67.441-155.108h20.21l67.456 155.108h0.81v-155.108h22.4V530.617h-27.86l-72.363-166.3h-0.81l-72.648 166.3h-27.847z m305.835 3.826c-19.655 0-35.77-6.557-47.787-19.67-12.018-12.828-18.29-30.307-18.29-52.153h22.386c0.284 17.21 4.366 30.308 12.018 39.055 7.097 9.273 17.479 13.653 30.862 13.653 12.558 0 22.656-3.271 29.753-9.842 7.111-6.542 10.652-15.559 10.652-27.577 0-12.558-5.19-24.305-15.018-34.944-5.191-5.461-15.29-13.383-30.578-24.32-20.765-14.193-34.688-25.927-42.325-34.673-13.113-14.464-19.4-30.578-19.4-48.328h129.992v19.94h-102.4c3.555 13.099 17.749 28.117 42.595 44.772 20.196 13.653 33.579 24.32 40.405 31.402 12.573 13.654 19.115 28.957 19.115 45.881s-6.002 30.862-17.465 41.245c-11.747 10.368-26.496 15.559-44.515 15.559z m115.228-166.3c-4.907 0-8.732-1.636-11.733-4.922-3.271-3.27-4.921-7.097-4.921-12.017 0-4.637 1.635-8.463 4.92-11.734 3.002-3.27 6.827-4.92 11.734-4.92 4.38 0 8.477 1.635 11.748 4.92 3.27 3.271 4.92 7.097 4.92 11.734a16.071 16.071 0 0 1-4.92 12.017 16.327 16.327 0 0 1-11.748 4.921z m64.711 162.474l-10.368-107.591h21.305a38.684 38.684 0 0 0 17.48 17.479c7.366 4.096 15.558 6.002 24.845 6.002 14.194 0 25.387-4.096 33.309-12.829 8.192-8.462 12.558-20.48 12.558-36.053 0-13.653-4.636-24.846-13.369-33.579-9.017-8.746-20.21-13.113-33.863-13.113-12.018 0-22.115 3.001-29.767 8.747-8.732 6.542-13.653 16.1-14.748 28.388h-22.116c1.365-17.75 8.732-31.944 22.386-42.326 12.018-9.273 26.766-13.923 43.975-13.923 19.115 0 35.499 6.016 48.597 17.749 13.938 12.558 21.035 28.672 21.035 48.341 0 21.02-6.016 37.405-17.493 49.423-11.464 11.733-26.482 17.479-45.042 17.479-9.017 0-17.21-1.366-24.846-4.651a50.688 50.688 0 0 1-21.035-14.748h-1.095l6.556 65.28h95.033v19.91H784.782z"  horiz-adv-x="1024" />

    
    <glyph glyph-name="weather-rain17" unicode="&#58935;" d="M146.27271111 65.96835554999996a254.97144889 254.97144889 0 0 0 44.30961778 475.68213334C220.3648 691.90997333 352.96597333 805.25084445 512 805.25084445c159.07043555 0 291.6352-113.34087111 321.41767111-263.63676445a254.97144889 254.97144889 0 0 0 44.41884444-475.57290667l-0.07281777-0.03640888a36.40888889 36.40888889 0 0 0-31.23882667 65.79086222A182.04444445 182.04444445 0 0 1 766.86222222 477.57084445a254.86222222 254.86222222 0 0 1-509.72444444 0 182.04444445 182.04444445 0 0 1-78.13347556-346.53980445 36.40888889 36.40888889 0 1 0-32.768-65.06268445z m166.02453334 32.18545778a36.40888889 36.40888889 0 0 0 17.58549333-48.42382222l-30.76551111-65.97290666a36.40888889 36.40888889 0 1 0-66.00931556 30.80192l30.80192 65.97290666a36.40888889 36.40888889 0 0 0 48.38741334 17.62190222z m155.90286222 0a36.40888889 36.40888889 0 0 0 17.58549333-48.42382222l-30.76551111-65.97290666a36.40888889 36.40888889 0 1 0-65.97290667 30.80192l30.76551111 65.97290666a36.40888889 36.40888889 0 0 0 48.38741334 17.62190222z m151.82506666 0a36.40888889 36.40888889 0 0 0 17.58549334-48.42382222l-30.76551112-65.97290666a36.40888889 36.40888889 0 1 0-65.97290666 30.80192l30.76551111 65.97290666a36.40888889 36.40888889 0 0 0 48.38741333 17.62190222z m153.24501334 0a36.40888889 36.40888889 0 0 0 17.62190222-48.42382222l-30.80192-65.97290666a36.40888889 36.40888889 0 0 0-65.97290667 30.80192l30.76551111 65.97290666a36.40888889 36.40888889 0 0 0 48.38741334 17.62190222z"  horiz-adv-x="1024" />

    
    <glyph glyph-name="weather-snow" unicode="&#58936;" d="M257.13777778 201.95555554999999h509.72444444a182.04444445 182.04444445 0 0 1 0 364.0888889 254.86222222 254.86222222 0 0 1-509.72444444 0 182.04444445 182.04444445 0 0 1 0-364.0888889z m0-72.81777777a254.86222222 254.86222222 0 0 0-66.55544889 500.94990222C220.3648 780.38357333 352.96597333 893.72444445 512 893.72444445c159.07043555 0 291.6352-113.34087111 321.41767111-263.63676445A254.86222222 254.86222222 0 0 0 766.86222222 129.13777777999996H257.13777778z m256.60984889-119.89447111V38.115555549999954a18.20444445 18.20444445 0 1 0 36.40888888 0v-28.87224888l20.38897778 20.38897778a18.20444445 18.20444445 0 0 0 25.77749334-25.70467556L575.93400889-16.49777777999998h28.83584a18.20444445 18.20444445 0 1 0 0-36.40888889H575.8976l20.38897778-20.38897778a18.20444445 18.20444445 0 0 0-25.70467556-25.77749333l-20.38897777 20.38897778V-107.51999999999998a18.20444445 18.20444445 0 1 0-36.4088889 0v28.87224889l-20.46179555-20.38897778a18.20444445 18.20444445 0 0 0-25.74108445 25.70467556L488.00654222-52.90666667000005h-28.87224889a18.20444445 18.20444445 0 1 0 0 36.40888889h28.87224889l-20.38897777 20.38897778a18.20444445 18.20444445 0 1 0 25.70467555 25.77749333l20.42538667-20.38897778z"  horiz-adv-x="1024" />

    
    <glyph glyph-name="weather-cloudy1" unicode="&#58937;" d="M288 128h448a160 160 0 0 1 0 320 224 224 0 0 1-448 0 160 160 0 0 1 0-320z m0-64a224 224 0 0 0-58.496 440.288C255.68 636.384 372.224 736 512 736c139.808 0 256.32-99.616 282.496-231.712A224 224 0 0 0 736 64H288z"  horiz-adv-x="1024" />

    
    <glyph glyph-name="weather-cloudy" unicode="&#58938;" d="M204.05361778 92.72888889000001h361.03054222A128.74183111 128.74183111 0 0 1 694.04444445 221.25226667000004c0 70.96092445-57.74449778 128.48696889-128.96028445 128.48696888C565.08416 449.09909333 484.25642667 529.6355555499999 384.56888889 529.6355555499999s-180.51527111-80.53646222-180.51527111-179.89632A128.74183111 128.74183111 0 0 1 75.09333333 221.21585777999996C75.09333333 150.25493332999997 132.83783111 92.72888889000001 204.05361778 92.72888889000001zM193.42222222 19.91111110999998c-105.58577778 0-191.14666667 86.94442667-191.14666667 194.16860444 0 89.71150222 59.85621333 165.18712889 141.23008 187.50577778C165.82428445 516.09144889 265.29336889 602.4533333300001 384.56888889 602.4533333300001c119.27552 0 218.74460445-86.36188445 241.06325333-200.86784C707.00600889 379.26684445 766.86222222 303.79121778 766.86222222 214.07971554999995 766.86222222 106.85553777999996 681.30133333 19.91111110999998 575.71555555 19.91111110999998H193.42222222z m412.51271111 552.86897778a145.63555555 145.63555555 0 0 0 192.02048-218.01642667c-6.69923555-6.5536-15.83786667-10.66780445-25.92312888-10.66780444a36.40888889 36.40888889 0 0 0-24.24832 63.56992 72.81777778 72.81777778 0 0 1-97.93991112 107.04213333 36.40888889 36.40888889 0 0 0-43.90912 58.07217778zM1021.72444445 424.04977778a36.40888889 36.40888889 0 0 0-36.4088889-36.40888889h-36.40888888a36.40888889 36.40888889 0 1 0 0 72.81777778h36.40888888a36.40888889 36.40888889 0 0 0 36.4088889-36.40888889zM610.08554667 750.78314667a36.40888889 36.40888889 0 0 0 43.69066666-27.27025778l8.15559112-35.46225778a36.40888889 36.40888889 0 0 0-70.92451556-16.384L582.81528889 707.12888889a36.40888889 36.40888889 0 0 0 27.30666666 43.69066666zM918.06833778 679.82222222a36.40888889 36.40888889 0 0 0 5.38851555-51.19089777l-22.9376-28.28970667a36.40888889 36.40888889 0 1 0-56.54300444 45.80238222l22.9376 28.32611555A36.40888889 36.40888889 0 0 0 918.10474667 679.82222222z"  horiz-adv-x="1024" />

    
    <glyph glyph-name="weather-rain3" unicode="&#58939;" d="M146.27271111 89.99822222a254.97144889 254.97144889 0 0 0 44.30961778 475.68213333C220.3648 715.93984 352.96597333 829.28071111 512 829.28071111c159.07043555 0 291.6352-113.34087111 321.41767111-263.63676444a254.97144889 254.97144889 0 0 0 44.41884444-475.57290667l-0.07281777-0.03640889a36.40888889 36.40888889 0 0 0-31.23882667 65.79086222A182.04444445 182.04444445 0 0 1 766.86222222 501.60071111a254.86222222 254.86222222 0 0 1-509.72444444 0 182.04444445 182.04444445 0 0 1-78.13347556-346.53980444 36.40888889 36.40888889 0 1 0-32.768-65.06268445z m175.05393778 32.18545778a36.40888889 36.40888889 0 0 0 17.62190222-48.42382222l-30.76551111-65.97290667a36.40888889 36.40888889 0 1 0-66.00931555 30.76551111l30.7655111 66.00931556a36.40888889 36.40888889 0 0 0 48.42382223 17.62190222z m444.0064-34.69767111a54.61333333 54.61333333 0 1 0-46.16647111-98.99576889 54.61333333 54.61333333 0 0 0 46.16647111 98.99576889zM495.43395555 143.41006222h85.63370667a36.40888889 36.40888889 0 0 0 37.57397333-51.51857777l-61.53102222-131.98222223a36.40888889 36.40888889 0 1 0-66.04572444 30.76551111l37.28270222 79.91751112h-90.00277333a36.40888889 36.40888889 0 0 0-32.58595556 52.79288888l61.53102223 131.98222222a36.40888889 36.40888889 0 1 0 66.00931555-30.7655111l-37.86524445-81.19182223z"  horiz-adv-x="1024" />

    
    <glyph glyph-name="weather-rain7" unicode="&#58940;" d="M257.13777778 201.95555554999999h509.72444444a182.04444445 182.04444445 0 0 1 0 364.0888889 254.86222222 254.86222222 0 0 1-509.72444444 0 182.04444445 182.04444445 0 0 1 0-364.0888889z m0-72.81777777a254.86222222 254.86222222 0 0 0-66.55544889 500.94990222C220.3648 780.38357333 352.96597333 893.72444445 512 893.72444445c159.07043555 0 291.6352-113.34087111 321.41767111-263.63676445A254.86222222 254.86222222 0 0 0 766.86222222 129.13777777999996H257.13777778z m-42.05226667-79.62624a36.40888889 36.40888889 0 0 0 17.62190222-48.42382223l-30.76551111-65.97290666a36.40888889 36.40888889 0 1 0-66.00931555 30.76551111l30.76551111 66.00931555a36.40888889 36.40888889 0 0 0 48.42382222 17.62190223z m218.45333334 0a36.40888889 36.40888889 0 0 0 17.62190222-48.42382223l-30.76551112-65.97290666a36.40888889 36.40888889 0 1 0-66.00931555 30.76551111l30.76551111 66.00931555a36.40888889 36.40888889 0 0 0 48.42382222 17.62190223z m218.45333333 0a36.40888889 36.40888889 0 0 0 17.62190222-48.42382223l-30.76551111-65.97290666a36.40888889 36.40888889 0 1 0-66.00931556 30.76551111l30.76551112 66.00931555a36.40888889 36.40888889 0 0 0 48.42382222 17.62190223z m218.45333333 0a36.40888889 36.40888889 0 0 0 17.62190222-48.42382223l-30.76551111-65.97290666a36.40888889 36.40888889 0 1 0-66.00931555 30.76551111l30.76551111 66.00931555a36.40888889 36.40888889 0 0 0 48.42382222 17.62190223z"  horiz-adv-x="1024" />

    
    <glyph glyph-name="weather-rain8" unicode="&#58941;" d="M257.13777778 201.95555554999999h509.72444444a182.04444445 182.04444445 0 0 1 0 364.0888889 254.86222222 254.86222222 0 0 1-509.72444444 0 182.04444445 182.04444445 0 0 1 0-364.0888889z m0-72.81777777a254.86222222 254.86222222 0 0 0-66.55544889 500.94990222C220.3648 780.38357333 352.96597333 893.72444445 512 893.72444445c159.07043555 0 291.6352-113.34087111 321.41767111-263.63676445A254.86222222 254.86222222 0 0 0 766.86222222 129.13777777999996H257.13777778z m-78.46115556-43.21735111a36.40888889 36.40888889 0 0 0 17.62190223-48.42382222l-30.76551112-65.97290667a36.40888889 36.40888889 0 1 0-66.00931555 30.76551111l30.76551111 66.00931556a36.40888889 36.40888889 0 0 0 48.42382222 17.62190222z m364.16170667 0a36.40888889 36.40888889 0 0 0 17.58549333-48.42382222l-30.76551111-65.97290667a36.40888889 36.40888889 0 1 0-65.97290666 30.76551111l30.7655111 66.00931556a36.40888889 36.40888889 0 0 0 48.38741334 17.62190222z m364.01607111 0a36.40888889 36.40888889 0 0 0 17.62190222-48.42382222l-30.76551111-65.97290667a36.40888889 36.40888889 0 1 0-66.00931556 30.76551111l30.76551112 66.00931556a36.40888889 36.40888889 0 0 0 48.42382222 17.62190222z m-546.06051555-72.81777778a36.40888889 36.40888889 0 0 0 17.58549333-48.42382222l-30.76551111-65.97290667a36.40888889 36.40888889 0 1 0-65.97290667 30.76551111l30.76551111 66.00931556a36.40888889 36.40888889 0 0 0 48.38741334 17.62190222z m354.98666666 0a36.40888889 36.40888889 0 0 0 17.58549334-48.42382222l-30.76551112-65.97290667a36.40888889 36.40888889 0 1 0-65.97290666 30.76551111l30.76551111 66.00931556a36.40888889 36.40888889 0 0 0 48.38741333 17.62190222z"  horiz-adv-x="1024" />

    
    <glyph glyph-name="weather-rain6" unicode="&#58942;" d="M257.13777778 201.95555554999999h509.72444444a182.04444445 182.04444445 0 0 1 0 364.0888889 254.86222222 254.86222222 0 0 1-509.72444444 0 182.04444445 182.04444445 0 0 1 0-364.0888889z m0-72.81777777a254.86222222 254.86222222 0 0 0-66.55544889 500.94990222C220.3648 780.38357333 352.96597333 893.72444445 512 893.72444445c159.07043555 0 291.6352-113.34087111 321.41767111-263.63676445A254.86222222 254.86222222 0 0 0 766.86222222 129.13777777999996H257.13777778z m-18.20444445-218.45333333c-30.14656 0-54.61333333 26.06876445-54.61333333 58.25422222 0 21.48124445 18.20444445 50.60835555 54.61333333 87.38133333 36.40888889-36.77297778 54.61333333-65.90008889 54.61333334-87.38133333 0-32.18545778-24.46677333-58.25422222-54.61333334-58.25422222z m182.04444445 0c-30.14656 0-54.61333333 26.06876445-54.61333333 58.25422222 0 21.48124445 18.20444445 50.60835555 54.61333333 87.38133333 36.40888889-36.77297778 54.61333333-65.90008889 54.61333333-87.38133333 0-32.18545778-24.46677333-58.25422222-54.61333333-58.25422222z m182.04444444 0c-30.14656 0-54.61333333 26.06876445-54.61333333 58.25422222 0 21.48124445 18.20444445 50.60835555 54.61333333 87.38133333 36.40888889-36.77297778 54.61333333-65.90008889 54.61333333-87.38133333 0-32.18545778-24.46677333-58.25422222-54.61333333-58.25422222z m182.04444445 0c-30.14656 0-54.61333333 26.06876445-54.61333334 58.25422222 0 21.48124445 18.20444445 50.60835555 54.61333334 87.38133333 36.40888889-36.77297778 54.61333333-65.90008889 54.61333333-87.38133333 0-32.18545778-24.46677333-58.25422222-54.61333333-58.25422222z"  horiz-adv-x="1024" />

    
    <glyph glyph-name="weather-rain23" unicode="&#58943;" d="M146.27271111 65.96835554999996a254.97144889 254.97144889 0 0 0 44.30961778 475.68213334C220.3648 691.90997333 352.96597333 805.25084445 512 805.25084445c159.07043555 0 291.6352-113.34087111 321.41767111-263.63676445a254.97144889 254.97144889 0 0 0 44.41884444-475.57290667l-0.07281777-0.03640888a36.40888889 36.40888889 0 0 0-31.23882667 65.79086222A182.04444445 182.04444445 0 0 1 766.86222222 477.57084445a254.86222222 254.86222222 0 0 1-509.72444444 0 182.04444445 182.04444445 0 0 1-78.13347556-346.53980445 36.40888889 36.40888889 0 1 0-32.768-65.06268445z m205.41895111 32.18545778a36.40888889 36.40888889 0 0 0 17.58549333-48.42382222l-30.7655111-65.97290666a36.40888889 36.40888889 0 1 0-65.97290667 30.80192l30.76551111 65.97290666a36.40888889 36.40888889 0 0 0 48.38741333 17.62190222z m382.29333333 0a36.40888889 36.40888889 0 0 0 17.58549334-48.42382222l-30.76551111-65.97290666a36.40888889 36.40888889 0 1 0-65.97290667 30.80192l30.76551111 65.97290666a36.40888889 36.40888889 0 0 0 48.38741333 17.62190222zM475.59111111 113.48195554999995h72.81777778a36.40888889 36.40888889 0 0 0 36.40888889-36.40888888v-72.81777778a36.40888889 36.40888889 0 0 0-36.40888889-36.40888889h-72.81777778a36.40888889 36.40888889 0 0 0-36.40888889 36.40888889v72.81777778a36.40888889 36.40888889 0 0 0 36.40888889 36.40888888z"  horiz-adv-x="1024" />

    
    </font>
</defs>
</svg>
